<?xml version="1.0" encoding="utf-8"?>
<!-- Generator: Adobe Illustrator 19.0.0, SVG Export Plug-In . SVG Version: 6.00 Build 0)  -->
<svg version="1.1" id="Layer_1" xmlns="http://www.w3.org/2000/svg" xmlns:xlink="http://www.w3.org/1999/xlink" x="0px" y="0px"
	 viewBox="128.5 189.8 352 409.6" style="enable-background:new 128.5 189.8 352 409.6;" xml:space="preserve">
<style type="text/css">
	.st0{fill:#0F964B;}
</style>
<g id="Layer_2">
	<path class="st0" d="M287.8,189.8c7.5,1.6,15.2,2.7,22.6,4.9c34.5,10.1,58.6,39.8,62.4,75.4c1.9,18.2-0.7,35.9-5.3,53.4
		c-0.5,1.9-1,3.8-1.5,6c16.1,2.7,30.4,9,44.1,16.9c22.1,12.8,38.6,30.9,51.3,52.6c9.1,15.5,16.4,31.7,18.7,49.8
		c0.6,4.3,0.5,8.8-0.2,13.1c-1.8,11.2-10.1,15.9-20.8,12.5c-13.8-4.4-27.6-8.9-41.5-13c-10.4-3-21.1-5.4-32.4-8.3
		c1,5.7,1.8,10.8,2.9,15.8c4.5,19.4,10.5,38.3,20.9,55.4c7.1,11.7,15.5,22.4,28.7,27.3c6.2,2.3,13.2,2.8,19.9,3.7
		c9.1,1.3,16.9,4.4,20.8,13.3c5.1,11.6-2.4,25.3-15.9,29.1c-3.8,1.1-7.9,1.6-11.8,1.6c-90.4,0.1-180.8,0.1-271.2,0
		c-4.1,0-8.4-0.5-12.2-1.9c-14.2-5-17.9-21.6-7.9-33.8c5.6-6.9,13.2-10.5,21.5-13.1c9.9-3.2,19.6-6.7,29.5-10
		c0.7-0.3,1.4-0.6,2.6-1.1c-0.6-1.4-1.2-2.7-1.8-4c-12.7-26.1-19.6-54-24.1-82.5c-5.7-36.5-7.2-73.2-4.6-110c1.1-16,3.9-32,6-47.9
		c0.2-1.4,0.5-2.9,0.7-4.6c-1.4-0.7-2.8-1.4-4.3-2.1c-16.7-7.4-33.4-14.7-50.1-22.1c-6-2.7-8.1-8.1-4.6-12.4
		c1.6-1.9,4.2-3.2,6.7-3.9c21.9-6.6,43.9-12.9,65.8-19.5c1.9-0.6,4-1.8,5-3.4c12.3-20.5,31.1-31.2,53.9-35.6
		c3.1-0.6,6.2-1.1,9.4-1.6L287.8,189.8L287.8,189.8z M235.5,546c15.7,23,36.1,37.3,64.7,37.4h54.4c32,0,64,0.1,96-0.1
		c3.5,0,7.4-1.1,10.5-2.8c4.1-2.3,3.5-6.3-0.7-8.1c-1.7-0.7-3.6-0.9-5.4-1.2c-7.4-1.4-15.2-1.8-22.2-4.3
		c-16.8-6.1-28.1-18.8-37.2-33.7c-16.4-27-24-57-27.8-88.1c-0.9-7.6,3.4-11.5,10.8-9.8c27.6,6.3,55.2,12.9,82,22.5
		c1.1,0.4,2.2,0.6,4.3,1.2c-0.6-4.9-0.7-9.2-1.6-13.2c-4.5-20.1-13.8-38-26.3-54.2c-18.7-24.3-42.7-40.5-73-46
		c-15.3-2.8-16.6-9.7-13.4-21.4c4.1-14.8,7.3-29.8,6.7-45.3c-0.9-22.4-8.8-41.6-26.8-55.7c-19.2-15.1-41.2-19.9-65.1-16.1
		c-15.2,2.4-28.4,8.6-38.8,20.4c-4.5,5.1-6.4,9.8-1.6,15.5c0.3,0.3,0.4,0.7,0.5,1.1c5.4,12.3,5.9,24.2-3.2,35.3
		c-1.1,1.3-2.3,2.5-3.6,3.9c0.7,0.5,1.2,0.9,1.7,1.2c12.2,7,21.9,16.9,30.8,27.6c16.5,20.1,28.6,42.7,36.8,67.3
		c8.5,25.4,12.5,51.5,8.5,78.3c-5.1,34-21.9,60.7-49.7,80.6C243.3,541,239.5,543.4,235.5,546L235.5,546z M227.4,532
		c14.8-8.4,27.4-19.1,37-33.1c16.8-24.4,20.2-51.7,16.7-80.3c-2.7-21.9-9.6-42.5-19.7-62.1c-10-19.4-22.3-37.3-39.2-51.5
		c-5.1-4.3-10.6-8.2-18.1-10.3c-1.7,12.9-3.7,25.4-4.9,38c-2.3,24.3-2.4,48.7-0.9,73.1c1.6,27.6,5.3,54.9,12.4,81.6
		C214.7,502.8,220,517.6,227.4,532z M247.9,583.4c-0.2-0.6-0.2-1-0.3-1.1c-9.8-7.5-18-16.5-24.9-26.8c-1.2-1.8-2.3-1.8-4.3-1.1
		c-11.1,4-22.4,7.6-33.5,11.7c-4,1.5-8,3.6-11.5,6c-2.5,1.7-5.1,4.8-3.1,7.7c1.3,1.9,4.8,2.5,7.4,3.5c0.7,0.3,1.6,0.1,2.4,0.1
		L247.9,583.4L247.9,583.4z M159.9,259.8c12.2,5.4,23.4,10.1,34.4,15.3c3.5,1.6,6.1,1.3,9.1-0.6c7.9-4.8,11.3-10.2,9.7-17.4
		c-0.7-3.3-2.2-6.5-3.7-9.6c-0.4-0.8-2.2-1.6-3-1.3C191.2,250.5,176.1,255,159.9,259.8L159.9,259.8z"/>
	<path class="st0" d="M322.3,475.8c-0.7,2.8-1.6,6.8-2.7,10.8c-4.9,16.8-12.4,32.2-23.5,45.8c-2.9,3.6-6.3,4.8-9.8,3.5
		c-5.1-1.9-6.7-7.6-3.4-12.6c3.3-4.9,6.9-9.5,9.9-14.5c6.3-10.4,10.2-21.9,13.3-33.6c0.4-1.4,0.7-2.8,1.4-4.2
		c1.7-3.6,5.1-5.3,8.9-4.4C319.9,467.4,322.3,470.6,322.3,475.8L322.3,475.8z M271.7,236.7c8.9-0.1,16.1,7,16.1,15.8
		c0,8.8-7.2,16-16,16c-8.6,0-15.8-7.1-15.9-15.7C255.7,244.1,262.9,236.8,271.7,236.7z M325.6,451.4c0,4.3-3.7,7.9-7.9,7.9
		c-4.3,0-8-3.9-7.8-8.3c0.1-4.3,3.7-7.7,8.1-7.6C322.3,443.5,325.6,446.9,325.6,451.4L325.6,451.4z"/>
</g>
</svg>
