<?xml version="1.0" encoding="utf-8"?>
<!-- Generator: Adobe Illustrator 27.0.0, SVG Export Plug-In . SVG Version: 6.00 Build 0)  -->
<svg version="1.1" id="Layer_1" xmlns="http://www.w3.org/2000/svg" xmlns:xlink="http://www.w3.org/1999/xlink" x="0px" y="0px"
	 width="312px" height="95px" viewBox="0 0 312 95" style="enable-background:new 0 0 312 95;" xml:space="preserve">
<style type="text/css">
	.st0{fill:#FFFFFF;}
	.st1{fill-rule:evenodd;clip-rule:evenodd;fill:#ED2E31;}
	.st2{fill:#9DBB4C;}
	.st3{fill:#418E5A;}
</style>
<g>
	<path class="st0" d="M76.6,63.7c-0.7,0-1.3-0.2-1.7-0.6c-0.4-0.4-0.6-1-0.6-1.8V37.2c0-0.8,0.2-1.4,0.6-1.8s1-0.6,1.7-0.6
		c0.6,0,1.2,0.1,1.5,0.4c0.4,0.2,0.7,0.7,1,1.3l9.5,18.3h-1.2L97,36.4c0.3-0.6,0.6-1,1-1.3s0.9-0.4,1.5-0.4c0.7,0,1.3,0.2,1.7,0.6
		c0.4,0.4,0.6,1,0.6,1.8v24.1c0,0.8-0.2,1.3-0.6,1.8c-0.4,0.4-0.9,0.6-1.7,0.6c-0.7,0-1.3-0.2-1.7-0.6c-0.4-0.4-0.6-1-0.6-1.8V42.7
		h0.8L90,58c-0.3,0.5-0.5,0.8-0.8,1s-0.7,0.3-1.2,0.3c-0.5,0-0.9-0.1-1.2-0.3c-0.3-0.2-0.6-0.5-0.8-1l-8.1-15.4h0.9v18.6
		c0,0.8-0.2,1.3-0.6,1.8C77.9,63.5,77.3,63.7,76.6,63.7"/>
	<path class="st0" d="M114.3,63.7c-0.6,0-1.1-0.2-1.5-0.5c-0.4-0.3-0.7-0.7-0.8-1.2s0-1.1,0.4-1.8l3.1-6.2v1.6l-10.3-17.4
		c-0.3-0.6-0.5-1.1-0.4-1.7c0.1-0.5,0.3-0.9,0.7-1.3c0.4-0.3,0.9-0.5,1.5-0.5c0.6,0,1.1,0.2,1.5,0.5c0.3,0.3,0.7,0.8,1,1.4l8.3,14.3
		H117l6.9-14.3c0.3-0.5,0.6-1,0.9-1.3c0.3-0.4,0.9-0.6,1.6-0.6c0.6,0,1.1,0.2,1.5,0.4c0.4,0.3,0.7,0.7,0.8,1.2s0,1.1-0.4,1.8
		l-11.5,23.5c-0.2,0.5-0.5,0.9-0.9,1.3C115.5,63.5,114.9,63.7,114.3,63.7"/>
	<path class="st0" d="M152,63.7c-0.8,0-1.4-0.2-1.8-0.7c-0.4-0.5-0.6-1.1-0.6-1.9V39.4h-9.7V45c0,2.4-0.1,4.6-0.5,6.5
		c-0.3,1.9-0.8,3.6-1.3,5c-0.6,1.5-1.3,2.8-2.1,3.8s-1.8,2-2.9,2.8c-0.6,0.4-1.1,0.6-1.7,0.5c-0.6-0.1-1.1-0.5-1.5-1.1
		c-0.4-0.6-0.5-1.2-0.4-1.8c0.1-0.6,0.5-1.1,1.1-1.5c0.8-0.6,1.5-1.3,2.1-2.2c0.6-0.9,1.1-1.9,1.5-3.1c0.4-1.2,0.7-2.7,0.9-4.4
		s0.3-3.7,0.3-6v-5.9c0-0.9,0.2-1.6,0.7-2c0.4-0.5,1.1-0.7,1.9-0.7h13.9c0.9,0,1.5,0.2,1.9,0.7s0.7,1.1,0.7,2V61
		c0,0.8-0.2,1.5-0.6,1.9C153.4,63.4,152.8,63.7,152,63.7"/>
	<path class="st0" d="M168.6,63.7c-0.8,0-1.4-0.2-1.8-0.7c-0.4-0.5-0.6-1.1-0.6-1.9V39.4h-7.5c-0.7,0-1.2-0.2-1.6-0.6
		c-0.4-0.4-0.6-0.9-0.6-1.6c0-0.7,0.2-1.2,0.6-1.6s0.9-0.5,1.6-0.5h19.9c0.7,0,1.2,0.2,1.6,0.5c0.4,0.4,0.6,0.9,0.6,1.6
		c0,0.7-0.2,1.2-0.6,1.6c-0.4,0.4-0.9,0.6-1.6,0.6h-7.5V61c0,0.8-0.2,1.5-0.6,1.9C170.1,63.4,169.4,63.7,168.6,63.7"/>
	<path class="st0" d="M184.8,63.7c-0.3,0-0.6,0-0.9-0.2c-0.3-0.1-0.5-0.3-0.6-0.5s-0.3-0.5-0.4-0.8s-0.1-0.7-0.1-1.1V37.2
		c0-0.8,0.2-1.4,0.6-1.8c0.4-0.4,1-0.6,1.7-0.6s1.3,0.2,1.7,0.6s0.6,1,0.6,1.8v19h-0.9l14.6-19.9c0.4-0.5,0.8-0.9,1.1-1.1
		c0.4-0.2,0.8-0.3,1.4-0.3c0.4,0,0.8,0.1,1.1,0.3c0.3,0.2,0.5,0.5,0.7,0.8s0.2,0.8,0.2,1.3v24.1c0,0.8-0.2,1.4-0.6,1.8
		c-0.4,0.4-0.9,0.6-1.7,0.6s-1.3-0.2-1.7-0.6c-0.4-0.4-0.6-1-0.6-1.8v-19h0.9l-14.6,19.9c-0.4,0.5-0.8,0.9-1.1,1.2
		C185.9,63.5,185.4,63.7,184.8,63.7"/>
	<path class="st0" d="M213.2,63.7c-0.8,0-1.4-0.2-1.8-0.7c-0.4-0.5-0.6-1.1-0.6-1.9V37.8c0-0.9,0.2-1.6,0.7-2
		c0.4-0.5,1.1-0.7,1.9-0.7h18.3c0.9,0,1.5,0.2,1.9,0.7s0.7,1.1,0.7,2V61c0,0.8-0.2,1.5-0.6,1.9c-0.4,0.5-1,0.7-1.8,0.7
		c-0.8,0-1.4-0.2-1.8-0.7c-0.4-0.5-0.6-1.1-0.6-1.9V39.4h-13.7V61c0,0.8-0.2,1.5-0.6,1.9C214.6,63.4,214,63.7,213.2,63.7"/>
	<path class="st0" d="M239.7,63.7c-0.6,0-1.1-0.2-1.5-0.4c-0.4-0.3-0.6-0.7-0.7-1.2c-0.1-0.5,0-1,0.3-1.7L248,36.9
		c0.3-0.8,0.7-1.3,1.2-1.7c0.5-0.3,1-0.5,1.6-0.5c0.6,0,1.1,0.2,1.6,0.5s0.9,0.9,1.2,1.7l10.2,23.5c0.3,0.6,0.4,1.2,0.3,1.7
		c-0.1,0.5-0.3,0.9-0.6,1.2s-0.8,0.4-1.4,0.4c-0.7,0-1.3-0.2-1.7-0.5c-0.4-0.4-0.8-0.9-1.1-1.7l-2.5-6l2.1,1.4h-16.2l2.1-1.4l-2.5,6
		c-0.3,0.8-0.7,1.3-1,1.7C240.9,63.5,240.4,63.7,239.7,63.7 M250.8,40.7L245.4,54l-1-1.3h12.8l-0.9,1.3L250.8,40.7L250.8,40.7z"/>
	<path class="st0" d="M269.8,63.7c-0.8,0-1.4-0.2-1.8-0.7c-0.4-0.5-0.6-1.1-0.6-1.9V37.4c0-0.9,0.2-1.5,0.6-1.9s1-0.7,1.8-0.7
		c0.8,0,1.4,0.2,1.8,0.7s0.6,1.1,0.6,1.9v9.7h4.4l-1,0.7l7.1-11.7c0.4-0.6,0.8-0.9,1.2-1.1c0.5-0.2,0.9-0.2,1.4-0.1s0.9,0.3,1.2,0.7
		c0.3,0.3,0.5,0.8,0.6,1.3c0,0.5-0.1,1.1-0.5,1.6l-6.5,10.3l-1.9-1.5c1.7,0.3,3.1,0.9,4.2,1.9c1.1,1,2.1,2.4,3,4.1l3.1,6.7
		c0.3,0.7,0.4,1.3,0.3,1.8c-0.1,0.5-0.4,1-0.8,1.3c-0.4,0.3-0.9,0.5-1.3,0.5s-1,0-1.5-0.3s-0.9-0.7-1.1-1.3l-3-6.8
		c-0.6-1.4-1.4-2.4-2.2-3s-1.9-0.9-3.2-0.9h-3.5V61c0,0.8-0.2,1.5-0.6,1.9C271.2,63.4,270.6,63.7,269.8,63.7"/>
	<path class="st1" d="M34.1,75.8l5.9-6.2l-1.6-12.5c-0.1,0.2-0.2,0.3-0.4,0.4c-0.4,0.5-0.9,0.8-1.4,1.2l0,0
		c-5.8,4.8-16.1,3.1-20.2,5.7l10.9,11.3c0.9,1,2.2,1.4,3.4,1.4S33.2,76.8,34.1,75.8 M16.8,35c2.5,4.3,0.8,15.1,5.5,21.1l0,0
		c0.3,0.5,0.7,1,1.1,1.4c0.1,0.1,0.3,0.3,0.4,0.4l-12,1.7l-5.9-6.2c-0.9-1-1.4-2.2-1.4-3.5s0.5-2.6,1.4-3.5L16.8,35z M23,42.7
		l-1.6-12.5l5.9-6.2c0.9-1,2.2-1.5,3.4-1.5s2.5,0.5,3.4,1.5L45,35.4c-4.1,2.6-14.4,0.8-20.2,5.7c-0.5,0.3-0.9,0.8-1.4,1.2
		C23.2,42.4,23.1,42.6,23,42.7 M44.6,64.8l10.9-11.3c0.9-1,1.4-2.2,1.4-3.5s-0.5-2.6-1.4-3.5l-5.9-6.2l-12,1.7
		c0.1,0.1,0.3,0.3,0.4,0.4c0.4,0.5,0.8,0.9,1.1,1.4l0,0C43.8,49.8,42.1,60.5,44.6,64.8 M30.7,43.8c-1.5,0-3,0.6-4.1,1.8
		c-1.1,1.2-1.7,2.8-1.7,4.3s0.6,3.1,1.7,4.3c1.1,1.2,2.6,1.8,4.1,1.8c1.5,0,3-0.6,4.1-1.8c1.2-1.2,1.7-2.8,1.7-4.3s-0.6-3.1-1.7-4.3
		C33.7,44.4,32.2,43.8,30.7,43.8 M58.7,56.8L37.2,79.1C35.5,81,33.1,82,30.7,82c-2.4,0-4.8-0.9-6.6-2.8L2.7,56.8
		C0.9,54.9,0,52.4,0,49.9s0.9-5,2.7-6.8l21.4-22.4c1.8-1.9,4.2-2.8,6.6-2.8c2.4,0,4.7,0.9,6.6,2.8l21.4,22.4
		c1.8,1.9,2.7,4.4,2.7,6.8C61.4,52.4,60.5,54.9,58.7,56.8"/>
	<path class="st2" d="M293.7,3c0,0,0.1,4.1-1.8,7.6s-3.7,5.7-3.7,9.6s1.8,6,4.5,8.9c0.5-1.5,0.2-4.2,0.7-7.5
		c0.2-1.2,0.8-2.6,1.2-3.9c1.5-4.8,1-8.2,1-8.2s1.1,2.4,0.1,8.6c1-2,4.1-2.9,4.1-2.9S300.6,9.6,293.7,3"/>
	<path class="st3" d="M311.7,9.1c-0.8,1.7-5.1,4.7-10.2,6.3c-5.1,1.7-8.9,6.1-7,15c2.9-7,6.1-7.2,8.7-8.9c2.2-1.4,5.5-4.9,5.5-4.9
		s-1.8,3.4-5.9,6.2s-6,4.5-6.5,9.9c8.3-0.3,12.9-8,14-10C312.8,17.6,311.7,9.1,311.7,9.1"/>
</g>
</svg>
