<?xml version="1.0" encoding="utf-8"?>
<!-- Generator: Adobe Illustrator 27.0.0, SVG Export Plug-In . SVG Version: 6.00 Build 0)  -->
<svg version="1.1" id="Layer_1" xmlns="http://www.w3.org/2000/svg" xmlns:xlink="http://www.w3.org/1999/xlink" x="0px" y="0px"
	 width="312px" height="95px" viewBox="0 0 312 95" enable-background="new 0 0 312 95" xml:space="preserve">
<g>
	<path fill="#11284B" d="M76.61,63.66c-0.72,0-1.27-0.21-1.65-0.64c-0.38-0.43-0.58-1.02-0.58-1.76v-24.1c0-0.77,0.2-1.37,0.61-1.78
		c0.41-0.41,0.97-0.62,1.69-0.62c0.64,0,1.15,0.13,1.52,0.38c0.37,0.25,0.71,0.69,1.02,1.3l9.49,18.32h-1.23l9.49-18.32
		c0.31-0.61,0.64-1.05,1-1.3c0.36-0.25,0.86-0.38,1.5-0.38c0.72,0,1.27,0.21,1.65,0.62c0.38,0.41,0.58,1.01,0.58,1.78v24.1
		c0,0.75-0.19,1.34-0.56,1.76c-0.37,0.43-0.93,0.64-1.67,0.64c-0.72,0-1.27-0.21-1.65-0.64c-0.38-0.43-0.58-1.02-0.58-1.76V42.69
		h0.85l-8.07,15.36c-0.26,0.45-0.53,0.79-0.81,1c-0.28,0.21-0.67,0.32-1.15,0.32c-0.49,0-0.88-0.11-1.19-0.34
		c-0.31-0.23-0.58-0.55-0.81-0.98l-8.14-15.4h0.92v18.6c0,0.75-0.19,1.34-0.56,1.76C77.91,63.45,77.35,63.66,76.61,63.66"/>
	<path fill="#11284B" d="M114.26,63.66c-0.56,0-1.05-0.15-1.46-0.46c-0.41-0.31-0.66-0.72-0.75-1.24c-0.09-0.52,0.03-1.12,0.36-1.78
		l3.07-6.25v1.6l-10.3-17.36c-0.33-0.59-0.47-1.14-0.4-1.66c0.06-0.52,0.3-0.94,0.71-1.26c0.41-0.32,0.92-0.48,1.54-0.48
		c0.64,0,1.13,0.16,1.48,0.48c0.35,0.32,0.68,0.78,1.02,1.36l8.34,14.31h-0.88l6.95-14.27c0.26-0.51,0.56-0.95,0.9-1.32
		c0.35-0.37,0.86-0.56,1.56-0.56c0.59,0,1.08,0.15,1.48,0.44c0.4,0.29,0.65,0.7,0.75,1.22c0.1,0.52-0.03,1.13-0.38,1.82
		l-11.49,23.53c-0.23,0.48-0.53,0.92-0.9,1.3C115.48,63.47,114.95,63.66,114.26,63.66"/>
	<path fill="#11284B" d="M152.02,63.66c-0.79,0-1.4-0.23-1.82-0.7c-0.42-0.47-0.63-1.12-0.63-1.94V39.37h-9.68v5.61
		c0,2.43-0.15,4.6-0.46,6.49c-0.31,1.9-0.75,3.58-1.33,5.05c-0.58,1.47-1.29,2.75-2.15,3.85c-0.86,1.1-1.84,2.04-2.94,2.85
		c-0.56,0.43-1.14,0.58-1.73,0.46c-0.59-0.12-1.1-0.47-1.54-1.06c-0.41-0.61-0.54-1.22-0.4-1.8c0.14-0.59,0.51-1.1,1.09-1.52
		c0.82-0.59,1.54-1.31,2.15-2.16c0.61-0.86,1.13-1.9,1.54-3.13c0.41-1.23,0.72-2.69,0.92-4.39c0.2-1.7,0.31-3.68,0.31-5.95V37.8
		c0-0.88,0.22-1.56,0.67-2.02c0.45-0.47,1.09-0.7,1.94-0.7h13.91c0.85,0,1.49,0.23,1.94,0.7c0.45,0.47,0.67,1.14,0.67,2.02v23.21
		c0,0.83-0.21,1.48-0.63,1.94C153.42,63.43,152.81,63.66,152.02,63.66"/>
	<path fill="#11284B" d="M168.62,63.66c-0.79,0-1.4-0.23-1.83-0.7c-0.42-0.47-0.63-1.12-0.63-1.94V39.37h-7.49
		c-0.67,0-1.18-0.19-1.56-0.58c-0.37-0.39-0.56-0.92-0.56-1.58c0-0.69,0.19-1.22,0.56-1.58c0.37-0.36,0.89-0.54,1.56-0.54h19.9
		c0.67,0,1.18,0.18,1.56,0.54c0.37,0.36,0.56,0.89,0.56,1.58c0,0.67-0.19,1.2-0.56,1.58c-0.37,0.39-0.89,0.58-1.56,0.58h-7.49v21.65
		c0,0.83-0.21,1.48-0.61,1.94C170.05,63.43,169.44,63.66,168.62,63.66"/>
	<path fill="#11284B" d="M184.83,63.66c-0.33,0-0.63-0.05-0.88-0.16c-0.26-0.11-0.47-0.27-0.65-0.5c-0.18-0.23-0.31-0.5-0.4-0.82
		c-0.09-0.32-0.13-0.69-0.13-1.12V37.2c0-0.78,0.2-1.38,0.6-1.8c0.4-0.43,0.97-0.64,1.71-0.64c0.74,0,1.31,0.21,1.69,0.64
		c0.38,0.43,0.58,1.03,0.58,1.8v18.96h-0.88l14.6-19.93c0.38-0.53,0.75-0.92,1.11-1.14c0.36-0.23,0.83-0.34,1.42-0.34
		c0.41,0,0.76,0.09,1.06,0.28c0.29,0.19,0.52,0.46,0.69,0.82c0.17,0.36,0.25,0.78,0.25,1.26v24.06c0,0.8-0.19,1.42-0.58,1.84
		c-0.38,0.43-0.95,0.64-1.69,0.64c-0.74,0-1.31-0.21-1.71-0.64c-0.4-0.43-0.6-1.04-0.6-1.84V42.21h0.85l-14.56,19.93
		c-0.41,0.53-0.77,0.92-1.09,1.16C185.87,63.54,185.42,63.66,184.83,63.66"/>
	<path fill="#11284B" d="M213.22,63.66c-0.79,0-1.4-0.23-1.83-0.7c-0.42-0.47-0.63-1.12-0.63-1.94V37.8c0-0.88,0.22-1.56,0.67-2.02
		c0.45-0.47,1.09-0.7,1.94-0.7h18.33c0.85,0,1.49,0.23,1.94,0.7c0.45,0.47,0.67,1.14,0.67,2.02v23.21c0,0.83-0.21,1.48-0.63,1.94
		c-0.42,0.47-1.03,0.7-1.82,0.7c-0.79,0-1.4-0.23-1.82-0.7c-0.42-0.47-0.63-1.12-0.63-1.94V39.37h-13.71v21.65
		c0,0.83-0.21,1.48-0.62,1.94C214.65,63.43,214.04,63.66,213.22,63.66"/>
	<path fill="#11284B" d="M239.73,63.66c-0.61,0-1.11-0.15-1.48-0.44c-0.37-0.29-0.6-0.69-0.67-1.18c-0.08-0.49,0.01-1.05,0.27-1.66
		l10.14-23.45c0.33-0.78,0.74-1.33,1.21-1.66c0.47-0.33,1.02-0.5,1.63-0.5c0.59,0,1.12,0.17,1.59,0.5c0.47,0.33,0.88,0.89,1.21,1.66
		l10.18,23.45c0.28,0.61,0.38,1.18,0.31,1.68c-0.08,0.51-0.29,0.9-0.65,1.18c-0.36,0.28-0.83,0.42-1.42,0.42
		c-0.72,0-1.27-0.18-1.67-0.54c-0.4-0.36-0.75-0.92-1.06-1.66l-2.5-6.05l2.07,1.4h-16.21l2.07-1.4l-2.46,6.05
		c-0.33,0.78-0.68,1.34-1.04,1.68C240.9,63.49,240.39,63.66,239.73,63.66 M250.75,40.65L245.37,54l-1-1.28h12.83L256.25,54
		l-5.42-13.35H250.75z"/>
	<path fill="#11284B" d="M269.77,63.66c-0.79,0-1.4-0.23-1.83-0.7c-0.42-0.47-0.63-1.12-0.63-1.94V37.36c0-0.86,0.21-1.5,0.63-1.94
		c0.42-0.44,1.03-0.66,1.83-0.66c0.79,0,1.4,0.22,1.82,0.66c0.42,0.44,0.63,1.09,0.63,1.94v9.7h4.38l-0.96,0.68l7.07-11.67
		c0.36-0.56,0.77-0.94,1.25-1.12c0.47-0.19,0.94-0.23,1.4-0.12c0.46,0.11,0.86,0.33,1.19,0.68c0.33,0.35,0.52,0.78,0.56,1.28
		c0.04,0.51-0.12,1.06-0.48,1.64l-6.45,10.3l-1.92-1.48c1.66,0.27,3.07,0.9,4.23,1.88c1.15,0.99,2.14,2.37,2.96,4.13l3.15,6.74
		c0.33,0.67,0.44,1.27,0.33,1.8c-0.11,0.53-0.37,0.96-0.77,1.26c-0.4,0.31-0.85,0.49-1.34,0.54s-0.99-0.05-1.46-0.3
		c-0.47-0.25-0.85-0.69-1.13-1.3l-3.04-6.82c-0.61-1.39-1.35-2.38-2.21-2.97c-0.86-0.59-1.93-0.88-3.21-0.88h-3.53v9.66
		c0,0.83-0.21,1.48-0.62,1.94C271.2,63.43,270.59,63.66,269.77,63.66"/>
	<path fill-rule="evenodd" clip-rule="evenodd" fill="#ED2E31" d="M34.08,75.81l5.94-6.2L38.4,57.12c-0.12,0.15-0.25,0.29-0.39,0.43
		c-0.43,0.45-0.88,0.84-1.36,1.19v0c-5.8,4.85-16.13,3.11-20.23,5.71l10.88,11.35c0.93,0.97,2.16,1.45,3.39,1.45
		S33.15,76.78,34.08,75.81 M16.76,35.02c2.49,4.27,0.82,15.06,5.47,21.11v0c0.34,0.5,0.72,0.97,1.15,1.42
		c0.13,0.14,0.27,0.28,0.41,0.41l-11.96,1.69l-5.94-6.2c-0.93-0.97-1.39-2.25-1.39-3.53c0-1.28,0.46-2.56,1.39-3.53L16.76,35.02z
		 M22.98,42.7l-1.62-12.48l5.94-6.2c0.93-0.97,2.16-1.45,3.39-1.45s2.46,0.49,3.39,1.45l10.88,11.35c-4.1,2.6-14.43,0.85-20.23,5.71
		c-0.48,0.35-0.93,0.75-1.36,1.19C23.24,42.41,23.11,42.56,22.98,42.7 M44.63,64.8l10.88-11.35c0.93-0.97,1.39-2.25,1.39-3.53
		c0-1.28-0.46-2.56-1.39-3.53l-5.94-6.2L37.6,41.87c0.14,0.13,0.28,0.27,0.41,0.41c0.43,0.45,0.81,0.92,1.14,1.42l0,0
		C43.81,49.75,42.14,60.53,44.63,64.8 M30.69,43.79c-1.5,0-3.01,0.6-4.15,1.79c-1.15,1.2-1.72,2.76-1.72,4.33s0.57,3.14,1.72,4.33
		c1.15,1.2,2.65,1.79,4.15,1.79c1.5,0,3.01-0.6,4.15-1.79c1.15-1.2,1.72-2.76,1.72-4.33s-0.57-3.14-1.72-4.33
		C33.7,44.38,32.2,43.79,30.69,43.79 M58.68,56.75L37.25,79.12c-1.8,1.88-4.18,2.83-6.56,2.83c-2.37,0-4.75-0.94-6.56-2.83
		L2.71,56.75C0.9,54.87,0,52.39,0,49.91c0-2.48,0.9-4.96,2.71-6.84l21.43-22.36c1.8-1.88,4.18-2.83,6.56-2.83
		c2.37,0,4.75,0.94,6.56,2.83l21.43,22.36c1.8,1.88,2.71,4.36,2.71,6.84C61.39,52.39,60.48,54.87,58.68,56.75"/>
	<path fill="#9DBB4C" d="M293.74,3.05c0,0,0.12,4.12-1.76,7.63c-1.88,3.51-3.67,5.71-3.67,9.59c0,3.88,1.8,6.04,4.46,8.93
		c0.51-1.48,0.17-4.22,0.71-7.49c0.2-1.23,0.82-2.62,1.24-3.93c1.52-4.77,1.02-8.24,1.02-8.24s1.09,2.35,0.11,8.59
		c1.01-1.96,4.11-2.88,4.11-2.88S300.62,9.58,293.74,3.05"/>
	<path fill="#418E5A" d="M311.72,9.13c-0.82,1.71-5.07,4.67-10.2,6.32c-5.14,1.66-8.91,6.08-7.04,14.97
		c2.88-6.98,6.11-7.25,8.68-8.85c2.16-1.35,5.47-4.9,5.47-4.9s-1.76,3.35-5.94,6.16c-4.18,2.81-6.02,4.49-6.53,9.87
		c8.33-0.33,12.94-8,13.96-10C312.84,17.56,311.72,9.13,311.72,9.13"/>
</g>
</svg>
