<?xml version="1.0" encoding="UTF-8"?> <svg xmlns="http://www.w3.org/2000/svg" width="26.152" height="38.76" viewBox="0 0 26.152 38.76"><path id="Path_1" data-name="Path 1" d="M-2000.046,1856.585v.467h-3.975v-5.425a4.759,4.759,0,0,0-.3-1.543,4.821,4.821,0,0,0-.74-1.386l-3.205-3.946a.772.772,0,0,1-.168-.491.792.792,0,0,1,.246-.586l.109-.1,0,0a.65.65,0,0,1,.441-.175.654.654,0,0,1,.5.23l.979,1.142a1.807,1.807,0,0,0,1.372.66,1.789,1.789,0,0,0,1.456-.786l.706-.989a.753.753,0,0,1,.573-.343.29.29,0,0,1,.184.057l.936.7a.7.7,0,0,0,.982-.14.7.7,0,0,0-.141-.981l-.934-.7a1.7,1.7,0,0,0-1.027-.337,2.14,2.14,0,0,0-1.713.93l-.706.989a.4.4,0,0,1-.315.2.413.413,0,0,1-.308-.172l-.98-1.142a2.048,2.048,0,0,0-1.56-.719,2.047,2.047,0,0,0-1.39.543l-.11.1,0,0a2.19,2.19,0,0,0-.7,1.618,2.176,2.176,0,0,0,.482,1.373l3.205,3.946a3.47,3.47,0,0,1,.507.972,3.423,3.423,0,0,1,.219,1.074l0,5.423h-3.964v-.467c0-2.888-1.662-4.831-3.269-6.709-1.837-2.149-3.736-4.371-3.736-8.417a10.17,10.17,0,0,1,3.34-7.267,12.08,12.08,0,0,1,8.335-3.291,12.08,12.08,0,0,1,8.335,3.291,10.178,10.178,0,0,1,3.34,7.267c0,4.046-1.9,6.268-3.736,8.415-1.607,1.88-3.269,3.823-3.269,6.711Zm-1.352,3.967-6.538.467a.7.7,0,0,1-.748-.649.7.7,0,0,1,.649-.748l6.538-.467a.7.7,0,0,1,.748.65A.7.7,0,0,1-2001.4,1860.553Zm0,3.269-6.538.467a.7.7,0,0,1-.748-.65.7.7,0,0,1,.649-.748l6.538-.467a.7.7,0,0,1,.748.649A.7.7,0,0,1-2001.4,1863.822Zm-3.318-34.322c-7.355,0-13.076,5.81-13.076,11.959,0,8.231,7.005,9.809,7.005,15.126v9.807h3.55l1.12,1.868h2.8l1.12-1.868h3.55v-9.807c0-5.318,7.005-6.9,7.005-15.126C-1991.639,1835.31-1997.36,1829.5-2004.715,1829.5Z" transform="translate(2017.791 -1829.5)" fill="#e01d74"></path></svg> 