<?xml version="1.0" encoding="UTF-8"?> <svg xmlns="http://www.w3.org/2000/svg" width="45.001" height="44.6" viewBox="0 0 45.001 44.6"><g id="Group_7" data-name="Group 7" transform="translate(-1627 -1799)"><path id="Path_86" data-name="Path 86" d="M128.425,337.484a.746.746,0,0,0,1.028-.416,2.951,2.951,0,0,1,5.568,0,.746.746,0,0,0,1.027.416,1.485,1.485,0,0,1,2.136,1.329H126.29a1.485,1.485,0,0,1,2.135-1.329Zm-3.443,2.32a.745.745,0,0,0,.7.5h13.1a.747.747,0,0,0,.7-.5,2.966,2.966,0,0,0-2.8-3.964,2.9,2.9,0,0,0-.58.059,4.433,4.433,0,0,0-7.76,0,2.9,2.9,0,0,0-.58-.059,2.954,2.954,0,0,0-2.8,3.964Z" transform="translate(1531.932 1471.339)" fill="#e01d74"></path><path id="Path_87" data-name="Path 87" d="M89.63,332.123a2.953,2.953,0,0,1,2.014.8.745.745,0,0,0,.8.136,2.222,2.222,0,0,1,3,1.293h-8.7a2.978,2.978,0,0,1,2.878-2.23Zm-3.717,3.717H96.319a.743.743,0,0,0,.743-.743,3.719,3.719,0,0,0-3.716-3.716,3.665,3.665,0,0,0-1.05.154A4.446,4.446,0,0,0,85.17,335.1a.741.741,0,0,0,.743.743Z" transform="translate(1541.834 1472.082)" fill="#e01d74"></path><path id="Path_88" data-name="Path 88" d="M94.953,345.5H90.746a2.231,2.231,0,0,1,4.207,0Zm-5.82.743a.743.743,0,0,0,.743.743h5.947a.741.741,0,0,0,.743-.743,3.716,3.716,0,0,0-7.433,0Z" transform="translate(1540.844 1469.111)" fill="#e01d74"></path><path id="Path_89" data-name="Path 89" d="M108.211,329.854v-2.4l3.6,1.2ZM118.534,346.9a.744.744,0,0,0-.659-.4H114.6l-6.392-12.077v-3l6.18-2.061h0a.742.742,0,0,0,0-1.412l-6.689-2.23a.743.743,0,0,0-.977.706v8.007L98.08,352.441H94.032a.74.74,0,0,0-.668.413l-8.121,16.352a.744.744,0,0,0,.669,1.074h11.15v-1.487H87.111l4.079-8.211L93.469,364l1.238-.825-2.754-4.133,2.54-5.116h2.851l-1.692,3.384,1.33.665,2.23-4.46.007-.01,3.962-8.25,1.422,2.367,1.275-.765-1.925-3.208,3.549-7.4,5.422,10.239h-3.969a.746.746,0,0,0-.669.41l-2.019,4.049h-1.771v1.487h6.27l2.014,3.356,1.275-.765-2.23-3.716h0a.747.747,0,0,0-.637-.361h-3.258l1.487-2.973h8.009l2.6,5.015-.074-.039-2.726,5.079,1.311.7L120.8,354.5l7.4,14.292h-5.867v1.486h7.089a.742.742,0,0,0,.66-1.085Z" transform="translate(1541.835 1473.319)" fill="#e01d74"></path><path id="Path_90" data-name="Path 90" d="M104.95,379.933l2.23-4.46h4a.748.748,0,0,0,.638-.36l2.013-3.356h5.08l1.2,2.23h-2.241a.744.744,0,0,0-.595.3l-2.23,2.973,1.189.892,2.007-2.676h2.676l2.4,4.46Zm20.248,1.125a.738.738,0,0,0,.016-.734l-5.2-9.663a.742.742,0,0,0-.654-.39h-5.947a.746.746,0,0,0-.637.36l-2.013,3.356h-4.04a.745.745,0,0,0-.665.41l-2.974,5.947a.745.745,0,0,0,.665,1.076H124.56a.739.739,0,0,0,.637-.362Z" transform="translate(1537.378 1462.18)" fill="#e01d74"></path></g></svg> 