<?xml version="1.0" encoding="UTF-8"?> <svg xmlns="http://www.w3.org/2000/svg" width="43.84" height="44.6" viewBox="0 0 43.84 44.6"><g id="Group_6" data-name="Group 6" transform="translate(-1405 -1799)"><path id="Path_69" data-name="Path 69" d="M484.088,184.591v-3.836l3.082,1.918Zm4.728-2.465-5.07-3.151a.619.619,0,0,0-.685,0,.721.721,0,0,0-.343.616v6.3a.719.719,0,0,0,.343.616.617.617,0,0,0,.342.068.521.521,0,0,0,.342-.137l5.07-3.151a.7.7,0,0,0,.342-.548.817.817,0,0,0-.342-.616Z" transform="translate(932.079 1627.631)" fill="#e01d74"></path><path id="Path_70" data-name="Path 70" d="M514.464,202.444a1.227,1.227,0,0,1-1.233,1.233H474.66a1.226,1.226,0,0,1-1.233-1.233v-2.877l41.037,0Zm-14.044,7.947H487.4l1.439-5.412H499.05Zm5.892,3.424h-24.8l.685-2.055h23.5Zm-31.72-41.789h38.572a1.228,1.228,0,0,1,1.234,1.233V198.2H473.36V173.258a1.228,1.228,0,0,1,1.234-1.233Zm38.639-1.371H474.592a2.6,2.6,0,0,0-2.6,2.6v29.185a2.6,2.6,0,0,0,2.6,2.6H487.4l-1.44,5.412h-4.316a.656.656,0,0,0-.616.48l-1.1,3.425a.962.962,0,0,0,.068.616.626.626,0,0,0,.548.274h26.718a.847.847,0,0,0,.547-.274.664.664,0,0,0,.069-.616l-1.1-3.425a.659.659,0,0,0-.616-.48h-4.316l-1.439-5.412h12.81a2.6,2.6,0,0,0,2.6-2.6V173.258a2.594,2.594,0,0,0-2.6-2.6Z" transform="translate(933.011 1628.345)" fill="#e01d74"></path><path id="Path_71" data-name="Path 71" d="M493.157,205.187h5.069a.685.685,0,1,0,0-1.371h-5.069a.648.648,0,0,0-.686.686A.686.686,0,0,0,493.157,205.187Z" transform="translate(931.232 1625.464)" fill="#e01d74"></path><path id="Path_72" data-name="Path 72" d="M477.11,175.777h16.442v13.084l-16.442,0Zm34.255,13.086H494.922V175.777h16.443Zm-34.94,1.369h35.556a.647.647,0,0,0,.685-.686V175.091a.647.647,0,0,0-.685-.686H476.425a.647.647,0,0,0-.686.686v14.455A.738.738,0,0,0,476.425,190.231Z" transform="translate(932.685 1628.019)" fill="#e01d74"></path><path id="Path_73" data-name="Path 73" d="M504.234,178.245a4.317,4.317,0,1,1-4.316,4.317A4.344,4.344,0,0,1,504.234,178.245Zm0,9.934h6.714a.685.685,0,0,0,0-1.371h-3.015a5.615,5.615,0,0,0,1.987-4.317,5.686,5.686,0,1,0-5.685,5.688Z" transform="translate(930.704 1627.811)" fill="#e01d74"></path><path id="Path_74" data-name="Path 74" d="M504.6,182.454a.48.48,0,1,1-.48.48A.469.469,0,0,1,504.6,182.454Zm0,2.329a1.849,1.849,0,1,0-1.849-1.849A1.84,1.84,0,0,0,504.6,184.783Z" transform="translate(930.339 1627.439)" fill="#e01d74"></path><path id="Path_75" data-name="Path 75" d="M504.635,180.129h.137a.685.685,0,1,0,0-1.371h-.137a.685.685,0,1,0,0,1.371Z" transform="translate(930.235 1627.641)" fill="#e01d74"></path><path id="Path_76" data-name="Path 76" d="M501.947,182.182l.068-.138a.694.694,0,0,0-1.3-.478l-.069.138a.711.711,0,0,0,.412.89A.662.662,0,0,0,501.947,182.182Z" transform="translate(930.525 1627.437)" fill="#e01d74"></path><path id="Path_77" data-name="Path 77" d="M502.193,186.37l.138.069a.685.685,0,0,0,.821-1.1l-.2-.068a.737.737,0,0,0-.96.138A.693.693,0,0,0,502.193,186.37Z" transform="translate(930.415 1627.085)" fill="#e01d74"></path><path id="Path_78" data-name="Path 78" d="M506.327,185.341a.739.739,0,0,0-.137.96.726.726,0,0,0,.959.138l.138-.069a.685.685,0,1,0-.822-1.1Z" transform="translate(930.05 1627.085)" fill="#e01d74"></path><path id="Path_79" data-name="Path 79" d="M507.466,182.182a.694.694,0,0,0,1.3-.478l-.069-.138a.694.694,0,0,0-1.3.478Z" transform="translate(929.939 1627.437)" fill="#e01d74"></path><path id="Path_80" data-name="Path 80" d="M476.426,196.934h1.713a.685.685,0,1,0,0-1.371l-1.713,0a.685.685,0,0,0,0,1.369Z" transform="translate(932.684 1626.181)" fill="#e01d74"></path><path id="Path_81" data-name="Path 81" d="M493.643,195.564h-3.562a.685.685,0,1,0,0,1.371h3.562a.647.647,0,0,0,.686-.685A.689.689,0,0,0,493.643,195.564Z" transform="translate(931.499 1626.181)" fill="#e01d74"></path><path id="Path_82" data-name="Path 82" d="M485.841,195.564h-3.563a.685.685,0,0,0,0,1.371l3.563,0a.646.646,0,0,0,.685-.685.687.687,0,0,0-.685-.684Z" transform="translate(932.177 1626.181)" fill="#e01d74"></path><path id="Path_83" data-name="Path 83" d="M501.444,195.564h-3.562a.685.685,0,1,0,0,1.371h3.562a.685.685,0,1,0,0-1.371Z" transform="translate(930.821 1626.181)" fill="#e01d74"></path><path id="Path_84" data-name="Path 84" d="M509.247,195.564h-3.562a.685.685,0,1,0,0,1.371h3.562a.685.685,0,1,0,0-1.371Z" transform="translate(930.143 1626.181)" fill="#e01d74"></path><path id="Path_85" data-name="Path 85" d="M515.277,195.564h-1.714a.685.685,0,0,0,0,1.371l1.714,0a.647.647,0,0,0,.685-.685.686.686,0,0,0-.685-.684Z" transform="translate(929.459 1626.181)" fill="#e01d74"></path></g></svg> 