<?xml version="1.0" encoding="UTF-8"?> <svg xmlns="http://www.w3.org/2000/svg" width="44.601" height="44.6" viewBox="0 0 44.601 44.6"><g id="Group_4" data-name="Group 4" transform="translate(-958 -1799)"><path id="Path_46" data-name="Path 46" d="M560.182,77.725H519.764a.7.7,0,0,1-.7-.662l-1.394-28.572a.7.7,0,0,1,.7-.732h13.937a.7.7,0,0,1,.692.61l.348,2.787-1.383.173-.272-2.177H519.1l1.324,27.179h39.093l1.324-27.179H548.254l-.62,4.966a.7.7,0,0,1-.692.61H542.76V53.334h3.567l.62-4.965a.7.7,0,0,1,.691-.61h13.938a.7.7,0,0,1,.7.732L560.88,77.062a.7.7,0,0,1-.7.662Z" transform="translate(440.328 1765.875)" fill="#e01d74"></path><path id="Path_47" data-name="Path 47" d="M569.946,47.645l-.585-2.927h-2.913V43.325h3.484a.7.7,0,0,1,.683.557l.7,3.484Z" transform="translate(429.881 1766.825)" fill="#e01d74"></path><path id="Path_48" data-name="Path 48" d="M520.831,47.645l-1.366-.279.7-3.484a.7.7,0,0,1,.683-.557h3.484v1.393h-2.913Z" transform="translate(439.944 1766.825)" fill="#e01d74"></path><path id="Path_49" data-name="Path 49" d="M558.218,44.467h-1.393V30.529h-24.8l-5.864,5.864v8.074h-1.394V36.1a.7.7,0,0,1,.2-.493l6.272-6.272a.7.7,0,0,1,.494-.2h25.784a.7.7,0,0,1,.7.7Z" transform="translate(438.808 1769.864)" fill="#e01d74"></path><path id="Path_50" data-name="Path 50" d="M531.927,36.991h-6.272V35.6h5.575V30.022h1.393v6.272a.695.695,0,0,1-.7.7Z" transform="translate(438.618 1769.674)" fill="#e01d74"></path><path id="Path_51" data-name="Path 51" d="M542.124,42.312H547.7V36.737h-5.575Zm6.272,1.393h-6.969a.7.7,0,0,1-.7-.7V36.04a.7.7,0,0,1,.7-.7H548.4a.7.7,0,0,1,.7.7v6.969a.695.695,0,0,1-.7.7Z" transform="translate(435.389 1768.534)" fill="#e01d74"></path><path id="Path_52" data-name="Path 52" d="M554.54,42.312h5.575V36.737H554.54Zm6.272,1.393h-6.969a.7.7,0,0,1-.7-.7V36.04a.7.7,0,0,1,.7-.7h6.969a.7.7,0,0,1,.7.7v6.969a.7.7,0,0,1-.7.7Z" transform="translate(432.73 1768.534)" fill="#e01d74"></path><path id="Path_53" data-name="Path 53" d="M540.478,43.2h-3.484a.7.7,0,0,1-.7-.7V36.927a.7.7,0,0,1,.7-.7h3.484v1.394h-2.787V41.8h2.787Z" transform="translate(436.339 1768.344)" fill="#e01d74"></path><rect id="Rectangle_17" data-name="Rectangle 17" width="9.756" height="1.394" transform="translate(975.423 1813.634)" fill="#e01d74"></rect><rect id="Rectangle_18" data-name="Rectangle 18" width="2.091" height="1.394" transform="translate(983.089 1816.421)" fill="#e01d74"></rect><path id="Path_54" data-name="Path 54" d="M547.959,44.451l-2.991-2.991-2.992,2.991-.986-.986,3.484-3.484a.7.7,0,0,1,.986,0l3.484,3.484Z" transform="translate(435.334 1767.585)" fill="#e01d74"></path><path id="Path_55" data-name="Path 55" d="M560.375,44.451l-2.992-2.991-2.992,2.991-.985-.986,3.484-3.484a.7.7,0,0,1,.986,0l3.484,3.484Z" transform="translate(432.674 1767.585)" fill="#e01d74"></path><path id="Path_56" data-name="Path 56" d="M536.615,52.7A10.464,10.464,0,1,0,544,55.765a10.458,10.458,0,0,0-7.388-3.065Zm0,22.3a11.86,11.86,0,1,1,8.373-3.474A11.844,11.844,0,0,1,536.615,75Z" transform="translate(438.808 1765.115)" fill="#e01d74"></path><path id="Path_57" data-name="Path 57" d="M538.894,63.342a2.091,2.091,0,1,0,2.09,2.09A2.091,2.091,0,0,0,538.894,63.342Zm0,5.575a3.484,3.484,0,1,1,3.484-3.484,3.484,3.484,0,0,1-3.484,3.484Z" transform="translate(436.529 1762.836)" fill="#e01d74"></path><path id="Path_58" data-name="Path 58" d="M539.274,56.247a.695.695,0,1,0,.493.2.7.7,0,0,0-.493-.2Zm0,2.787a2.091,2.091,0,1,1,2.09-2.09A2.09,2.09,0,0,1,539.274,59.034Z" transform="translate(436.149 1764.356)" fill="#e01d74"></path><path id="Path_59" data-name="Path 59" d="M539.274,73.983a.7.7,0,1,0,.493.2.7.7,0,0,0-.493-.2Zm0,2.788a2.091,2.091,0,1,1,2.09-2.091A2.091,2.091,0,0,1,539.274,76.771Z" transform="translate(436.149 1760.557)" fill="#e01d74"></path><path id="Path_60" data-name="Path 60" d="M548.142,65.115a.695.695,0,1,0,.494.2.7.7,0,0,0-.494-.2Zm0,2.787a2.091,2.091,0,1,1,2.091-2.091A2.09,2.09,0,0,1,548.142,67.9Z" transform="translate(434.249 1762.456)" fill="#e01d74"></path><path id="Path_61" data-name="Path 61" d="M530.406,65.115a.7.7,0,1,0,.493.2.7.7,0,0,0-.493-.2Zm0,2.787a2.091,2.091,0,1,1,2.09-2.091A2.092,2.092,0,0,1,530.406,67.9Z" transform="translate(438.048 1762.456)" fill="#e01d74"></path><path id="Path_62" data-name="Path 62" d="M533.066,58.907a.7.7,0,1,0,.494.2.7.7,0,0,0-.494-.2Zm0,2.787a2.091,2.091,0,1,1,2.091-2.09A2.09,2.09,0,0,1,533.066,61.694Z" transform="translate(437.479 1763.786)" fill="#e01d74"></path><path id="Path_63" data-name="Path 63" d="M545.482,58.907a.7.7,0,1,0,.493.2.7.7,0,0,0-.493-.2Zm0,2.787a2.091,2.091,0,1,1,2.09-2.09A2.091,2.091,0,0,1,545.482,61.694Z" transform="translate(434.819 1763.786)" fill="#e01d74"></path><path id="Path_64" data-name="Path 64" d="M533.066,71.323a.695.695,0,1,0,.494.2.7.7,0,0,0-.494-.2Zm0,2.787a2.091,2.091,0,1,1,2.091-2.091A2.09,2.09,0,0,1,533.066,74.11Z" transform="translate(437.479 1761.127)" fill="#e01d74"></path><path id="Path_65" data-name="Path 65" d="M545.482,71.323a.695.695,0,1,0,.493.2.7.7,0,0,0-.493-.2Zm0,2.787a2.091,2.091,0,1,1,2.09-2.091A2.09,2.09,0,0,1,545.482,74.11Z" transform="translate(434.819 1761.127)" fill="#e01d74"></path><rect id="Rectangle_19" data-name="Rectangle 19" width="19.513" height="1.394" transform="translate(975.423 1838.721)" fill="#e01d74"></rect></g></svg> 