<?xml version="1.0" encoding="UTF-8"?> <svg xmlns="http://www.w3.org/2000/svg" width="38.886" height="44.6" viewBox="0 0 38.886 44.6"><g id="Group_5" data-name="Group 5" transform="translate(-1185 -1799)"><path id="Path_66" data-name="Path 66" d="M57.1,204.731c0,2.491-1.058,4.354-2.007,4.354H53.084v-7.826l0-3.158h2.007c.947,0,2.007,1.861,2.007,4.354Zm-6.786-.342V202.8h1.239v1.595Zm-1.537,7.258H25.983V196.465c.031.014.064.025.094.038.178.081.361.156.545.221.04.013.08.032.121.046a6.661,6.661,0,0,0,.678.19c.055.014.113.024.169.035.181.037.363.067.548.09.066.008.132.017.2.024.236.023.476.038.716.038H44.18c.239,0,.478-.012.714-.029.072-.006.142-.014.213-.019.171-.017.342-.037.511-.064.073-.011.146-.021.219-.034.2-.035.391-.075.584-.121.037-.01.073-.015.107-.024.228-.058.453-.125.676-.2.058-.019.113-.04.17-.061.167-.059.335-.123.5-.192l.2-.087q.252-.113.5-.24l.149-.074.053-.027v9.952Zm-9.048,4.394h-4.7l1.2-2.858h2.294ZM21.289,201.261v-1.45h3.16v1.45Zm2.03-11.4a5.74,5.74,0,0,1,11.351-1.21l.054.392v.008a4.933,4.933,0,0,1,.066.812,5.763,5.763,0,0,1-5.735,5.745c-.154,0-.306-.006-.457-.017a5.729,5.729,0,0,1-2.553-.841c-.128-.079-.253-.165-.374-.255l-.006-.005a5.751,5.751,0,0,1-2.345-4.628Zm13.478-8.37a9.563,9.563,0,0,0-1.944,3.978,7.339,7.339,0,0,0-3.208-2.405ZM34.732,194.4l0-.006,0,0a7.185,7.185,0,0,0,1.159-2.051,9.543,9.543,0,0,0,3.09,3.263l-5.468,0a7.206,7.206,0,0,0,1.215-1.206Zm17.491-6.834a8.04,8.04,0,0,1-15.98,1.256l-.048-.356a8.732,8.732,0,0,1-.046-.9,8.037,8.037,0,0,1,16.075,0Zm2.869,9H51.549v4.695H50.31v-6.337a9.568,9.568,0,0,0-9.924-16.134l-13.43,4.1v0a7.265,7.265,0,0,0-2.509,12.579v2.8h-4.7V202.8h4.7v10.389H34.566L30.853,222l1.416.6,2.113-5.021h5.993l2.113,5.021L43.9,222l-3.711-8.82h10.12v-7.258h1.239v4.7h3.543c1.986,0,3.544-2.587,3.544-5.89l0-2.276c0-3.3-1.557-5.89-3.543-5.89Z" transform="translate(1165.248 1621)" fill="#e01d74"></path><path id="Path_67" data-name="Path 67" d="M29.9,189.184a1.9,1.9,0,1,1-1.9,1.9A1.9,1.9,0,0,1,29.9,189.184Zm0,5.333a3.436,3.436,0,1,0-3.437-3.436A3.441,3.441,0,0,0,29.9,194.517Z" transform="translate(1164.4 1619.783)" fill="#e01d74"></path><path id="Path_68" data-name="Path 68" d="M46.994,184.788a3.446,3.446,0,1,1-3.445,3.445A3.45,3.45,0,0,1,46.994,184.788Zm0,8.428a4.983,4.983,0,1,0-4.982-4.983A4.988,4.988,0,0,0,46.994,193.216Z" transform="translate(1162.438 1620.337)" fill="#e01d74"></path></g></svg> 