<?xml version="1.0" encoding="UTF-8"?> <svg xmlns="http://www.w3.org/2000/svg" width="44.6" height="44.6" viewBox="0 0 44.6 44.6"><g id="Group_3" data-name="Group 3" transform="translate(-736 -1799)"><path id="Path_91" data-name="Path 91" d="M317.044,78.114v-4.46h20.07v4.46Zm-21.557-4.46h20.07v4.46h-20.07Zm20.07-37.167V50.61h-20.07V36.486ZM337.114,50.61h-20.07V36.486h20.07Zm-20.07,5.946V52.1h20.07v4.46ZM295.486,52.1h20.07v4.46h-20.07Zm0,5.947h20.07V72.168l-20.07,0Zm41.627,14.123h-20.07V58.044h20.07ZM337.856,35H294.744a.743.743,0,0,0-.744.744V78.856a.743.743,0,0,0,.744.744h43.113a.743.743,0,0,0,.744-.744V35.744A.743.743,0,0,0,337.856,35Z" transform="translate(442 1764)" fill="#e01d74"></path><rect id="Rectangle_20" data-name="Rectangle 20" width="1.486" height="1.486" transform="translate(741.946 1817.584)" fill="#e01d74"></rect><rect id="Rectangle_21" data-name="Rectangle 21" width="10.406" height="1.486" transform="translate(745.664 1817.584)" fill="#e01d74"></rect><rect id="Rectangle_22" data-name="Rectangle 22" width="1.486" height="1.486" transform="translate(763.504 1817.584)" fill="#e01d74"></rect><rect id="Rectangle_23" data-name="Rectangle 23" width="10.406" height="1.486" transform="translate(767.22 1817.584)" fill="#e01d74"></rect><rect id="Rectangle_24" data-name="Rectangle 24" width="1.486" height="1.486" transform="translate(763.504 1839.14)" fill="#e01d74"></rect><rect id="Rectangle_25" data-name="Rectangle 25" width="10.406" height="1.486" transform="translate(767.22 1839.14)" fill="#e01d74"></rect><rect id="Rectangle_26" data-name="Rectangle 26" width="1.486" height="1.486" transform="translate(741.946 1839.14)" fill="#e01d74"></rect><rect id="Rectangle_27" data-name="Rectangle 27" width="10.406" height="1.486" transform="translate(745.664 1839.14)" fill="#e01d74"></rect><rect id="Rectangle_28" data-name="Rectangle 28" width="1.486" height="1.486" transform="translate(750.866 1808.664)" fill="#e01d74"></rect><rect id="Rectangle_29" data-name="Rectangle 29" width="1.486" height="1.486" transform="translate(753.84 1808.664)" fill="#e01d74"></rect><rect id="Rectangle_30" data-name="Rectangle 30" width="7.434" height="1.486" transform="translate(747.894 1805.69)" fill="#e01d74"></rect><rect id="Rectangle_31" data-name="Rectangle 31" width="1.486" height="1.486" transform="translate(772.424 1808.664)" fill="#e01d74"></rect><rect id="Rectangle_32" data-name="Rectangle 32" width="1.486" height="1.486" transform="translate(775.396 1808.664)" fill="#e01d74"></rect><rect id="Rectangle_33" data-name="Rectangle 33" width="7.434" height="1.486" transform="translate(769.45 1805.69)" fill="#e01d74"></rect><rect id="Rectangle_34" data-name="Rectangle 34" width="1.486" height="1.486" transform="translate(750.866 1830.22)" fill="#e01d74"></rect><rect id="Rectangle_35" data-name="Rectangle 35" width="1.486" height="1.486" transform="translate(753.84 1830.22)" fill="#e01d74"></rect><rect id="Rectangle_36" data-name="Rectangle 36" width="7.434" height="1.486" transform="translate(747.894 1827.246)" fill="#e01d74"></rect><rect id="Rectangle_37" data-name="Rectangle 37" width="1.486" height="1.486" transform="translate(772.424 1830.22)" fill="#e01d74"></rect><rect id="Rectangle_38" data-name="Rectangle 38" width="1.486" height="1.486" transform="translate(775.396 1830.22)" fill="#e01d74"></rect><rect id="Rectangle_39" data-name="Rectangle 39" width="7.434" height="1.486" transform="translate(769.45 1827.246)" fill="#e01d74"></rect></g></svg> 