<?xml version="1.0" encoding="utf-8"?>
<!-- Generator: Adobe Illustrator 19.0.0, SVG Export Plug-In . SVG Version: 6.00 Build 0)  -->
<svg version="1.1" id="Layer_1" xmlns="http://www.w3.org/2000/svg" xmlns:xlink="http://www.w3.org/1999/xlink" x="0px" y="0px"
	 viewBox="0 0 563 183.2" style="enable-background:new 0 0 563 183.2;" xml:space="preserve">
<style type="text/css">
	.st0{fill-rule:evenodd;clip-rule:evenodd;fill:none;stroke:#050303;stroke-width:0.5624;stroke-miterlimit:2.6131;}
	.st1{fill-rule:evenodd;clip-rule:evenodd;fill:#050805;}
	.st2{clip-path:url(#XMLID_329_);fill-rule:evenodd;clip-rule:evenodd;fill:#09411E;}
	.st3{clip-path:url(#XMLID_329_);fill-rule:evenodd;clip-rule:evenodd;fill:#09421F;}
	.st4{clip-path:url(#XMLID_329_);fill-rule:evenodd;clip-rule:evenodd;fill:#0A4320;}
	.st5{clip-path:url(#XMLID_329_);fill-rule:evenodd;clip-rule:evenodd;fill:#054320;}
	.st6{clip-path:url(#XMLID_329_);fill-rule:evenodd;clip-rule:evenodd;fill:#064421;}
	.st7{clip-path:url(#XMLID_329_);fill-rule:evenodd;clip-rule:evenodd;fill:#074522;}
	.st8{clip-path:url(#XMLID_329_);fill-rule:evenodd;clip-rule:evenodd;fill:#064622;}
	.st9{clip-path:url(#XMLID_329_);fill-rule:evenodd;clip-rule:evenodd;fill:#074723;}
	.st10{clip-path:url(#XMLID_329_);fill-rule:evenodd;clip-rule:evenodd;fill:#074924;}
	.st11{clip-path:url(#XMLID_329_);fill-rule:evenodd;clip-rule:evenodd;fill:#084A24;}
	.st12{clip-path:url(#XMLID_329_);fill-rule:evenodd;clip-rule:evenodd;fill:#094B25;}
	.st13{clip-path:url(#XMLID_329_);fill-rule:evenodd;clip-rule:evenodd;fill:#044C26;}
	.st14{clip-path:url(#XMLID_329_);fill-rule:evenodd;clip-rule:evenodd;fill:#004E27;}
	.st15{clip-path:url(#XMLID_329_);fill-rule:evenodd;clip-rule:evenodd;fill:#004F28;}
	.st16{clip-path:url(#XMLID_329_);fill-rule:evenodd;clip-rule:evenodd;fill:#005029;}
	.st17{clip-path:url(#XMLID_329_);fill-rule:evenodd;clip-rule:evenodd;fill:#00522A;}
	.st18{clip-path:url(#XMLID_329_);fill-rule:evenodd;clip-rule:evenodd;fill:#00532B;}
	.st19{clip-path:url(#XMLID_329_);fill-rule:evenodd;clip-rule:evenodd;fill:#00552C;}
	.st20{clip-path:url(#XMLID_329_);fill-rule:evenodd;clip-rule:evenodd;fill:#00562D;}
	.st21{clip-path:url(#XMLID_329_);fill-rule:evenodd;clip-rule:evenodd;fill:#00572D;}
	.st22{clip-path:url(#XMLID_329_);fill-rule:evenodd;clip-rule:evenodd;fill:#00582E;}
	.st23{clip-path:url(#XMLID_329_);fill-rule:evenodd;clip-rule:evenodd;fill:#005B2F;}
	.st24{clip-path:url(#XMLID_329_);fill-rule:evenodd;clip-rule:evenodd;fill:#005B30;}
	.st25{clip-path:url(#XMLID_329_);fill-rule:evenodd;clip-rule:evenodd;fill:#005C31;}
	.st26{clip-path:url(#XMLID_329_);fill-rule:evenodd;clip-rule:evenodd;fill:#005E32;}
	.st27{clip-path:url(#XMLID_329_);fill-rule:evenodd;clip-rule:evenodd;fill:#006033;}
	.st28{clip-path:url(#XMLID_329_);fill-rule:evenodd;clip-rule:evenodd;fill:#006134;}
	.st29{clip-path:url(#XMLID_329_);fill-rule:evenodd;clip-rule:evenodd;fill:#006335;}
	.st30{clip-path:url(#XMLID_329_);fill-rule:evenodd;clip-rule:evenodd;fill:#006435;}
	.st31{clip-path:url(#XMLID_329_);fill-rule:evenodd;clip-rule:evenodd;fill:#006536;}
	.st32{clip-path:url(#XMLID_329_);fill-rule:evenodd;clip-rule:evenodd;fill:#006737;}
	.st33{clip-path:url(#XMLID_329_);fill-rule:evenodd;clip-rule:evenodd;fill:#006938;}
	.st34{clip-path:url(#XMLID_329_);fill-rule:evenodd;clip-rule:evenodd;fill:#006A39;}
	.st35{clip-path:url(#XMLID_329_);fill-rule:evenodd;clip-rule:evenodd;fill:#006B39;}
	.st36{clip-path:url(#XMLID_329_);fill-rule:evenodd;clip-rule:evenodd;fill:#006C39;}
	.st37{clip-path:url(#XMLID_329_);fill-rule:evenodd;clip-rule:evenodd;fill:#006D3A;}
	.st38{clip-path:url(#XMLID_329_);fill-rule:evenodd;clip-rule:evenodd;fill:#00703B;}
	.st39{clip-path:url(#XMLID_329_);fill-rule:evenodd;clip-rule:evenodd;fill:#00733C;}
	.st40{clip-path:url(#XMLID_329_);fill-rule:evenodd;clip-rule:evenodd;fill:#00753D;}
	.st41{clip-path:url(#XMLID_329_);fill-rule:evenodd;clip-rule:evenodd;fill:#00763E;}
	.st42{clip-path:url(#XMLID_329_);fill-rule:evenodd;clip-rule:evenodd;fill:#00773E;}
	.st43{clip-path:url(#XMLID_329_);fill-rule:evenodd;clip-rule:evenodd;fill:#00793F;}
	.st44{clip-path:url(#XMLID_329_);fill-rule:evenodd;clip-rule:evenodd;fill:#007C40;}
	.st45{clip-path:url(#XMLID_329_);fill-rule:evenodd;clip-rule:evenodd;fill:#007E41;}
	.st46{clip-path:url(#XMLID_329_);fill-rule:evenodd;clip-rule:evenodd;fill:#007F41;}
	.st47{clip-path:url(#XMLID_329_);fill-rule:evenodd;clip-rule:evenodd;fill:#008142;}
	.st48{clip-path:url(#XMLID_329_);fill-rule:evenodd;clip-rule:evenodd;fill:#008343;}
	.st49{clip-path:url(#XMLID_329_);fill-rule:evenodd;clip-rule:evenodd;fill:#008543;}
	.st50{clip-path:url(#XMLID_329_);fill-rule:evenodd;clip-rule:evenodd;fill:#008644;}
	.st51{clip-path:url(#XMLID_329_);fill-rule:evenodd;clip-rule:evenodd;fill:#008744;}
	.st52{clip-path:url(#XMLID_329_);fill-rule:evenodd;clip-rule:evenodd;fill:#008844;}
	.st53{clip-path:url(#XMLID_329_);fill-rule:evenodd;clip-rule:evenodd;fill:#008945;}
	.st54{clip-path:url(#XMLID_329_);fill-rule:evenodd;clip-rule:evenodd;fill:#008B46;}
	.st55{clip-path:url(#XMLID_329_);fill-rule:evenodd;clip-rule:evenodd;fill:#008C46;}
	.st56{clip-path:url(#XMLID_329_);fill-rule:evenodd;clip-rule:evenodd;fill:#008E46;}
	.st57{clip-path:url(#XMLID_329_);fill-rule:evenodd;clip-rule:evenodd;fill:#009047;}
	.st58{clip-path:url(#XMLID_329_);fill-rule:evenodd;clip-rule:evenodd;fill:#009147;}
	.st59{clip-path:url(#XMLID_329_);fill-rule:evenodd;clip-rule:evenodd;fill:#009247;}
	.st60{clip-path:url(#XMLID_329_);fill-rule:evenodd;clip-rule:evenodd;fill:#009347;}
	.st61{clip-path:url(#XMLID_329_);fill-rule:evenodd;clip-rule:evenodd;fill:#009547;}
	.st62{clip-path:url(#XMLID_329_);fill-rule:evenodd;clip-rule:evenodd;fill:#009748;}
	.st63{clip-path:url(#XMLID_329_);fill-rule:evenodd;clip-rule:evenodd;fill:#019948;}
	.st64{clip-path:url(#XMLID_329_);fill-rule:evenodd;clip-rule:evenodd;fill:#019A49;}
	.st65{clip-path:url(#XMLID_329_);fill-rule:evenodd;clip-rule:evenodd;fill:#129B48;}
	.st66{clip-path:url(#XMLID_329_);fill-rule:evenodd;clip-rule:evenodd;fill:#0E9C49;}
	.st67{clip-path:url(#XMLID_329_);fill-rule:evenodd;clip-rule:evenodd;fill:#199C48;}
	.st68{clip-path:url(#XMLID_329_);fill-rule:evenodd;clip-rule:evenodd;fill:#169D48;}
	.st69{clip-path:url(#XMLID_329_);fill-rule:evenodd;clip-rule:evenodd;fill:#209E48;}
	.st70{clip-path:url(#XMLID_329_);fill-rule:evenodd;clip-rule:evenodd;fill:#25A149;}
	.st71{clip-path:url(#XMLID_329_);fill-rule:evenodd;clip-rule:evenodd;fill:#2CA249;}
	.st72{clip-path:url(#XMLID_329_);fill-rule:evenodd;clip-rule:evenodd;fill:#30A448;}
	.st73{clip-path:url(#XMLID_329_);fill-rule:evenodd;clip-rule:evenodd;fill:#36A448;}
	.st74{clip-path:url(#XMLID_329_);fill-rule:evenodd;clip-rule:evenodd;fill:#3BA548;}
	.st75{clip-path:url(#XMLID_329_);fill-rule:evenodd;clip-rule:evenodd;fill:#3AA648;}
	.st76{clip-path:url(#XMLID_329_);fill-rule:evenodd;clip-rule:evenodd;fill:#3EA748;}
	.st77{clip-path:url(#XMLID_329_);fill-rule:evenodd;clip-rule:evenodd;fill:#3FA548;}
	.st78{clip-path:url(#XMLID_329_);fill-rule:evenodd;clip-rule:evenodd;fill:#44A949;}
	.st79{clip-path:url(#XMLID_329_);fill-rule:evenodd;clip-rule:evenodd;fill:#43AB49;}
	.st80{clip-path:url(#XMLID_329_);fill-rule:evenodd;clip-rule:evenodd;fill:#47AB48;}
	.st81{clip-path:url(#XMLID_329_);fill-rule:evenodd;clip-rule:evenodd;fill:#4CAB48;}
	.st82{clip-path:url(#XMLID_329_);fill-rule:evenodd;clip-rule:evenodd;fill:#4CAC48;}
	.st83{clip-path:url(#XMLID_329_);fill-rule:evenodd;clip-rule:evenodd;fill:#50AC48;}
	.st84{clip-path:url(#XMLID_329_);fill-rule:evenodd;clip-rule:evenodd;fill:#53AD47;}
	.st85{clip-path:url(#XMLID_329_);fill-rule:evenodd;clip-rule:evenodd;fill:#57AE47;}
	.st86{clip-path:url(#XMLID_329_);fill-rule:evenodd;clip-rule:evenodd;fill:#5AAE47;}
	.st87{clip-path:url(#XMLID_329_);fill-rule:evenodd;clip-rule:evenodd;fill:#5AB047;}
	.st88{clip-path:url(#XMLID_329_);fill-rule:evenodd;clip-rule:evenodd;fill:#5DB046;}
	.st89{clip-path:url(#XMLID_329_);fill-rule:evenodd;clip-rule:evenodd;fill:#60B146;}
	.st90{clip-path:url(#XMLID_329_);fill-rule:evenodd;clip-rule:evenodd;fill:#63B346;}
	.st91{clip-path:url(#XMLID_329_);fill-rule:evenodd;clip-rule:evenodd;fill:#66B345;}
	.st92{clip-path:url(#XMLID_329_);fill-rule:evenodd;clip-rule:evenodd;fill:#66B245;}
	.st93{clip-path:url(#XMLID_329_);fill-rule:evenodd;clip-rule:evenodd;fill:#69B445;}
	.st94{clip-path:url(#XMLID_329_);fill-rule:evenodd;clip-rule:evenodd;fill:#6CB545;}
	.st95{clip-path:url(#XMLID_329_);fill-rule:evenodd;clip-rule:evenodd;fill:#6FB544;}
	.st96{clip-path:url(#XMLID_329_);fill-rule:evenodd;clip-rule:evenodd;fill:#74B743;}
	.st97{clip-path:url(#XMLID_329_);fill-rule:evenodd;clip-rule:evenodd;fill:#74B843;}
	.st98{clip-path:url(#XMLID_329_);fill-rule:evenodd;clip-rule:evenodd;fill:#7AB843;}
	.st99{clip-path:url(#XMLID_329_);fill-rule:evenodd;clip-rule:evenodd;fill:#7AB943;}
	.st100{clip-path:url(#XMLID_329_);fill-rule:evenodd;clip-rule:evenodd;fill:#7FBB42;}
	.st101{clip-path:url(#XMLID_329_);fill-rule:evenodd;clip-rule:evenodd;fill:#81BC41;}
	.st102{clip-path:url(#XMLID_329_);fill-rule:evenodd;clip-rule:evenodd;fill:#84BC41;}
	.st103{clip-path:url(#XMLID_329_);fill-rule:evenodd;clip-rule:evenodd;fill:#87BD40;}
	.st104{clip-path:url(#XMLID_329_);fill-rule:evenodd;clip-rule:evenodd;fill:#89BC40;}
	.st105{clip-path:url(#XMLID_329_);fill-rule:evenodd;clip-rule:evenodd;fill:#8CBE3F;}
	.st106{clip-path:url(#XMLID_329_);fill-rule:evenodd;clip-rule:evenodd;fill:#91C03E;}
	.st107{clip-path:url(#XMLID_329_);fill-rule:evenodd;clip-rule:evenodd;fill:#93C13E;}
	.st108{clip-path:url(#XMLID_329_);fill-rule:evenodd;clip-rule:evenodd;fill:#96C13D;}
	.st109{clip-path:url(#XMLID_329_);fill-rule:evenodd;clip-rule:evenodd;fill:#98C23D;}
	.st110{clip-path:url(#XMLID_329_);fill-rule:evenodd;clip-rule:evenodd;fill:#9BC33C;}
	.st111{clip-path:url(#XMLID_329_);fill-rule:evenodd;clip-rule:evenodd;fill:#9DC33B;}
	.st112{clip-path:url(#XMLID_329_);fill-rule:evenodd;clip-rule:evenodd;fill:#A2C53A;}
	.st113{clip-path:url(#XMLID_329_);fill-rule:evenodd;clip-rule:evenodd;fill:#A7C739;}
	.st114{clip-path:url(#XMLID_329_);fill-rule:evenodd;clip-rule:evenodd;fill:#ABC837;}
	.st115{clip-path:url(#XMLID_329_);fill-rule:evenodd;clip-rule:evenodd;fill:#AEC937;}
	.st116{clip-path:url(#XMLID_329_);fill-rule:evenodd;clip-rule:evenodd;fill:#B0CA36;}
	.st117{clip-path:url(#XMLID_329_);fill-rule:evenodd;clip-rule:evenodd;fill:#B3CA35;}
	.st118{clip-path:url(#XMLID_329_);fill-rule:evenodd;clip-rule:evenodd;fill:#B5CB34;}
	.st119{clip-path:url(#XMLID_329_);fill-rule:evenodd;clip-rule:evenodd;fill:#B8CC33;}
	.st120{clip-path:url(#XMLID_329_);fill-rule:evenodd;clip-rule:evenodd;fill:#BACD32;}
	.st121{clip-path:url(#XMLID_329_);fill-rule:evenodd;clip-rule:evenodd;fill:#BCCE32;}
	.st122{clip-path:url(#XMLID_329_);fill-rule:evenodd;clip-rule:evenodd;fill:#BFCF31;}
	.st123{clip-path:url(#XMLID_329_);fill-rule:evenodd;clip-rule:evenodd;fill:#C1CF30;}
	.st124{clip-path:url(#XMLID_329_);fill-rule:evenodd;clip-rule:evenodd;fill:#C6D12E;}
	.st125{fill-rule:evenodd;clip-rule:evenodd;fill:#FFFFFF;}
	.st126{fill:#FFFFFF;}
</style>
<path id="XMLID_269_" class="st0" d="M150.7,9c0,0-4,3.8-9.2,6.5c-1.7,0.8-3.2,1.7-4.5,2.6c-0.7,0.5-1.3,1-2,1.6
	c2.4,1.5,4.8,3.1,7.1,4.9c3.1,2.4,6.1,5,8.8,7.7c0.6,0.6,1.3,1.4,2.1,2.2c0.5,0.5,0.9,1,1.3,1.4l391.2,0c4.8,0,9.2,2,12.4,5.1
	c3.2,3.2,5.1,7.5,5.1,12.4v82.8c0,4.8-2,9.2-5.1,12.4c-3.2,3.2-7.5,5.1-12.4,5.1l-391.2,0c-0.4,0.5-0.9,1-1.3,1.4
	c-0.8,0.8-1.5,1.5-2.1,2.2c-8.1,8.1-17.9,14.7-28.7,19.2c-10.4,4.3-21.8,6.7-33.8,6.7s-23.4-2.4-33.8-6.7
	c-10.8-4.5-20.6-11-28.7-19.2c-8.1-8.1-14.7-17.9-19.2-28.7C2.4,118.2,0,106.7,0,94.8c0-12,2.4-23.4,6.7-33.8
	c4.5-10.8,11-20.6,19.2-28.7c7.7-7.7,16.8-14,26.9-18.4c9.5-4.2,19.9-6.8,30.9-7.3c3.9-2.9,7.9-4.5,11.7-5.3
	c5.5-1.2,10.5-0.6,13.9,0.2l0,0l0.2,0l0,0c6.1,1.5,15.9,4,21.7,2c6-2,5.7-1.7,5.7-1.7l1.1-0.6c0.1,0,20.3-5.5,13.1,7.2L150.7,9z"/>
<path id="XMLID_268_" class="st1" d="M149,7.1c0,0-3.7,3.6-8.6,6.1c-3.4,1.8-6.3,3.4-9.3,6.9c6.6,3.8,12.7,8.5,18,13.8
	c1.4,1.4,2.7,2.8,4,4.3l392.4,0c8.3,0,15,6.8,15,15V136c0,8.3-6.8,15-15,15H153.1c-1.3,1.5-2.6,2.9-4,4.3
	c-15.5,15.5-37,25.2-60.7,25.2c-23.7,0-45.2-9.6-60.7-25.2c-15.5-15.5-25.2-37-25.2-60.7c0-23.7,9.6-45.2,25.2-60.7
	C42.3,19.2,62.4,9.8,84.6,8.8c9-7,18.9-6.4,24.1-5.1c6.4,1.6,16.7,4.2,23.2,2c6.5-2.2,6.7-2.3,6.7-2.3S153.3-0.5,149,7.1z"/>
<g id="XMLID_276_">
	<g id="XMLID_277_">
		<defs>
			<path id="XMLID_278_" d="M90.1,13.9c3.6,0.1,7.2,0.4,10.7,1c-0.7,2.2-0.5,4.7-0.2,6c0.4,2-5,7.6-5.4,11.3
				c-0.4,3.7,2,10.8,12.2,9.3c9.7-1.4,14.5-9.6,18.9-17.5c23.5,13.6,39.5,39.3,39.5,68.9c0,43.7-34.6,79.1-77.4,79.1
				c-3.7,0-7.3-0.3-10.8-0.8c-0.9-6.7-2-13.1-3.1-18.3c-3.8-18.4,0.3-33.8,7.3-50.1c7-16.3,24.4-31.9,30.8-36.9
				c6.4-5,4.9-12.3,3.2-15.1c-1.7-2.8-2.5-6.5-2.5-6.5s-1.7,3.9-11.9,8.6S79.6,53.5,80.7,44C81.7,36,84.9,22.8,90.1,13.9L90.1,13.9
				L90.1,13.9z M60.2,166.6c-0.1,0-0.2-0.1-0.4-0.1C59.9,166.5,60.1,166.6,60.2,166.6L60.2,166.6z M57.9,165.7
				c-4-1.7-7.8-3.8-11.4-6.2l0.1,0.1c0.1-5.5,0-10.5,0-13.7c0-7.5,2.9-17.2,6.5-22.2c3.6-5,8.1-4.4,9.9-1.3c1.8,3,0.4,8.2-1.9,12.9
				c-2.3,4.7-6.8,14.8-6.9,19.4C54.2,157.4,55.9,161.3,57.9,165.7L57.9,165.7L57.9,165.7z M32.9,148.1L32.9,148.1
				c9-25,22.1-51.3,25-56.6c3.3-6.2,3-7.3,4.1-11.7c1-4.5,3.2-8,4.9-9.6c1.7-1.6,4.1-9.5,2.2-19.7c-1.7-9.2-0.6-23.2,7.2-35.5
				C39.3,20.9,11,53.5,11,93C11,114.4,19.3,133.8,32.9,148.1L32.9,148.1z M116.7,151.4L116.7,151.4c2.5,2.8,5.5,9.4,8.5,9.3
				c2-0.1,4-2.3,5.9-6.1c3.2-6.4,0.2-12.7-1.5-16.2c-1.7-3.5-5.2-12.2-5.2-12.2S121.5,141.9,116.7,151.4z"/>
		</defs>
		<clipPath id="XMLID_329_">
			<use xlink:href="#XMLID_278_"  style="overflow:visible;"/>
		</clipPath>
		<rect id="XMLID_267_" x="11" y="171.4" class="st2" width="154.7" height="0.6"/>
		<rect id="XMLID_266_" x="11" y="170.8" class="st2" width="154.7" height="1.2"/>
		<rect id="XMLID_265_" x="11" y="170.2" class="st2" width="154.7" height="1.2"/>
		<rect id="XMLID_264_" x="11" y="169.6" class="st2" width="154.7" height="1.2"/>
		<rect id="XMLID_263_" x="11" y="168.9" class="st2" width="154.7" height="1.2"/>
		<rect id="XMLID_262_" x="11" y="168.3" class="st3" width="154.7" height="1.2"/>
		<rect id="XMLID_261_" x="11" y="167.7" class="st3" width="154.7" height="1.2"/>
		<rect id="XMLID_260_" x="11" y="167.1" class="st4" width="154.7" height="1.2"/>
		<rect id="XMLID_259_" x="11" y="166.5" class="st5" width="154.7" height="1.2"/>
		<rect id="XMLID_258_" x="11" y="165.9" class="st5" width="154.7" height="1.2"/>
		<rect id="XMLID_257_" x="11" y="165.2" class="st5" width="154.7" height="1.2"/>
		<rect id="XMLID_256_" x="11" y="164.6" class="st6" width="154.7" height="1.2"/>
		<rect id="XMLID_255_" x="11" y="164" class="st6" width="154.7" height="1.2"/>
		<rect id="XMLID_254_" x="11" y="163.4" class="st7" width="154.7" height="1.2"/>
		<rect id="XMLID_253_" x="11" y="162.8" class="st7" width="154.7" height="1.2"/>
		<rect id="XMLID_252_" x="11" y="162.1" class="st8" width="154.7" height="1.2"/>
		<rect id="XMLID_251_" x="11" y="161.5" class="st8" width="154.7" height="1.2"/>
		<rect id="XMLID_250_" x="11" y="160.9" class="st9" width="154.7" height="1.2"/>
		<rect id="XMLID_249_" x="11" y="160.3" class="st9" width="154.7" height="1.2"/>
		<rect id="XMLID_248_" x="11" y="159.7" class="st10" width="154.7" height="1.2"/>
		<rect id="XMLID_247_" x="11" y="159.1" class="st10" width="154.7" height="1.2"/>
		<rect id="XMLID_246_" x="11" y="158.4" class="st10" width="154.7" height="1.2"/>
		<rect id="XMLID_245_" x="11" y="157.8" class="st10" width="154.7" height="1.2"/>
		<rect id="XMLID_244_" x="11" y="157.2" class="st11" width="154.7" height="1.2"/>
		<rect id="XMLID_243_" x="11" y="156.6" class="st11" width="154.7" height="1.2"/>
		<rect id="XMLID_242_" x="11" y="156" class="st12" width="154.7" height="1.2"/>
		<rect id="XMLID_241_" x="11" y="155.4" class="st12" width="154.7" height="1.2"/>
		<rect id="XMLID_240_" x="11" y="154.7" class="st12" width="154.7" height="1.2"/>
		<rect id="XMLID_239_" x="11" y="154.1" class="st12" width="154.7" height="1.2"/>
		<rect id="XMLID_238_" x="11" y="153.5" class="st13" width="154.7" height="1.2"/>
		<rect id="XMLID_237_" x="11" y="152.9" class="st13" width="154.7" height="1.2"/>
		<rect id="XMLID_236_" x="11" y="152.3" class="st14" width="154.7" height="1.2"/>
		<rect id="XMLID_235_" x="11" y="151.6" class="st14" width="154.7" height="1.2"/>
		<rect id="XMLID_234_" x="11" y="151" class="st14" width="154.7" height="1.2"/>
		<rect id="XMLID_233_" x="11" y="150.4" class="st14" width="154.7" height="1.2"/>
		<rect id="XMLID_232_" x="11" y="149.8" class="st14" width="154.7" height="1.2"/>
		<rect id="XMLID_231_" x="11" y="149.2" class="st15" width="154.7" height="1.2"/>
		<rect id="XMLID_230_" x="11" y="148.6" class="st15" width="154.7" height="1.2"/>
		<rect id="XMLID_229_" x="11" y="147.9" class="st15" width="154.7" height="1.2"/>
		<rect id="XMLID_228_" x="11" y="147.3" class="st15" width="154.7" height="1.2"/>
		<rect id="XMLID_227_" x="11" y="146.7" class="st15" width="154.7" height="1.2"/>
		<rect id="XMLID_226_" x="11" y="146.1" class="st16" width="154.7" height="1.2"/>
		<rect id="XMLID_225_" x="11" y="145.5" class="st16" width="154.7" height="1.2"/>
		<rect id="XMLID_224_" x="11" y="144.9" class="st17" width="154.7" height="1.2"/>
		<rect id="XMLID_223_" x="11" y="144.2" class="st17" width="154.7" height="1.2"/>
		<rect id="XMLID_222_" x="11" y="143.6" class="st17" width="154.7" height="1.2"/>
		<rect id="XMLID_221_" x="11" y="143" class="st17" width="154.7" height="1.2"/>
		<rect id="XMLID_220_" x="11" y="142.4" class="st18" width="154.7" height="1.2"/>
		<rect id="XMLID_219_" x="11" y="141.8" class="st18" width="154.7" height="1.2"/>
		<rect id="XMLID_218_" x="11" y="141.2" class="st19" width="154.7" height="1.2"/>
		<rect id="XMLID_217_" x="11" y="140.5" class="st19" width="154.7" height="1.2"/>
		<rect id="XMLID_216_" x="11" y="139.9" class="st19" width="154.7" height="1.2"/>
		<rect id="XMLID_215_" x="11" y="139.3" class="st19" width="154.7" height="1.2"/>
		<rect id="XMLID_214_" x="11" y="138.7" class="st20" width="154.7" height="1.2"/>
		<rect id="XMLID_213_" x="11" y="138.1" class="st20" width="154.7" height="1.2"/>
		<rect id="XMLID_212_" x="11" y="137.4" class="st21" width="154.7" height="1.2"/>
		<rect id="XMLID_211_" x="11" y="136.8" class="st21" width="154.7" height="1.2"/>
		<rect id="XMLID_210_" x="11" y="136.2" class="st22" width="154.7" height="1.2"/>
		<rect id="XMLID_209_" x="11" y="135.6" class="st22" width="154.7" height="1.2"/>
		<rect id="XMLID_208_" x="11" y="135" class="st23" width="154.7" height="1.2"/>
		<rect id="XMLID_207_" x="11" y="134.4" class="st23" width="154.7" height="1.2"/>
		<rect id="XMLID_206_" x="11" y="133.7" class="st24" width="154.7" height="1.2"/>
		<rect id="XMLID_205_" x="11" y="133.1" class="st24" width="154.7" height="1.2"/>
		<rect id="XMLID_204_" x="11" y="132.5" class="st25" width="154.7" height="1.2"/>
		<rect id="XMLID_203_" x="11" y="131.9" class="st26" width="154.7" height="1.2"/>
		<rect id="XMLID_202_" x="11" y="131.3" class="st26" width="154.7" height="1.2"/>
		<rect id="XMLID_201_" x="11" y="130.7" class="st26" width="154.7" height="1.2"/>
		<rect id="XMLID_200_" x="11" y="130" class="st27" width="154.7" height="1.2"/>
		<rect id="XMLID_199_" x="11" y="129.4" class="st28" width="154.7" height="1.2"/>
		<rect id="XMLID_198_" x="11" y="128.8" class="st28" width="154.7" height="1.2"/>
		<rect id="XMLID_197_" x="11" y="128.2" class="st29" width="154.7" height="1.2"/>
		<rect id="XMLID_196_" x="11" y="127.6" class="st30" width="154.7" height="1.2"/>
		<rect id="XMLID_195_" x="11" y="126.9" class="st30" width="154.7" height="1.2"/>
		<rect id="XMLID_194_" x="11" y="126.3" class="st30" width="154.7" height="1.2"/>
		<rect id="XMLID_193_" x="11" y="125.7" class="st31" width="154.7" height="1.2"/>
		<rect id="XMLID_192_" x="11" y="125.1" class="st31" width="154.7" height="1.2"/>
		<rect id="XMLID_191_" x="11" y="124.5" class="st32" width="154.7" height="1.2"/>
		<rect id="XMLID_190_" x="11" y="123.9" class="st32" width="154.7" height="1.2"/>
		<rect id="XMLID_189_" x="11" y="123.2" class="st33" width="154.7" height="1.2"/>
		<rect id="XMLID_188_" x="11" y="122.6" class="st33" width="154.7" height="1.2"/>
		<rect id="XMLID_187_" x="11" y="122" class="st34" width="154.7" height="1.2"/>
		<rect id="XMLID_186_" x="11" y="121.4" class="st35" width="154.7" height="1.2"/>
		<rect id="XMLID_185_" x="11" y="120.8" class="st35" width="154.7" height="1.2"/>
		<rect id="XMLID_184_" x="11" y="120.2" class="st36" width="154.7" height="1.2"/>
		<rect id="XMLID_183_" x="11" y="119.5" class="st37" width="154.7" height="1.2"/>
		<rect id="XMLID_182_" x="11" y="118.9" class="st38" width="154.7" height="1.2"/>
		<rect id="XMLID_181_" x="11" y="118.3" class="st38" width="154.7" height="1.2"/>
		<rect id="XMLID_180_" x="11" y="117.7" class="st38" width="154.7" height="1.2"/>
		<rect id="XMLID_179_" x="11" y="117.1" class="st38" width="154.7" height="1.2"/>
		<rect id="XMLID_178_" x="11" y="116.5" class="st39" width="154.7" height="1.2"/>
		<rect id="XMLID_177_" x="11" y="115.8" class="st39" width="154.7" height="1.2"/>
		<rect id="XMLID_176_" x="11" y="115.2" class="st39" width="154.7" height="1.2"/>
		<rect id="XMLID_175_" x="11" y="114.6" class="st40" width="154.7" height="1.2"/>
		<rect id="XMLID_174_" x="11" y="114" class="st40" width="154.7" height="1.2"/>
		<rect id="XMLID_173_" x="11" y="113.4" class="st41" width="154.7" height="1.2"/>
		<rect id="XMLID_172_" x="11" y="112.7" class="st41" width="154.7" height="1.2"/>
		<rect id="XMLID_171_" x="11" y="112.1" class="st42" width="154.7" height="1.2"/>
		<rect id="XMLID_170_" x="11" y="111.5" class="st42" width="154.7" height="1.2"/>
		<rect id="XMLID_169_" x="11" y="110.9" class="st43" width="154.7" height="1.2"/>
		<rect id="XMLID_168_" x="11" y="110.3" class="st43" width="154.7" height="1.2"/>
		<rect id="XMLID_167_" x="11" y="109.7" class="st44" width="154.7" height="1.2"/>
		<rect id="XMLID_166_" x="11" y="109" class="st44" width="154.7" height="1.2"/>
		<rect id="XMLID_165_" x="11" y="108.4" class="st44" width="154.7" height="1.2"/>
		<rect id="XMLID_164_" x="11" y="107.8" class="st44" width="154.7" height="1.2"/>
		<rect id="XMLID_163_" x="11" y="107.2" class="st45" width="154.7" height="1.2"/>
		<rect id="XMLID_162_" x="11" y="106.6" class="st45" width="154.7" height="1.2"/>
		<rect id="XMLID_161_" x="11" y="106" class="st46" width="154.7" height="1.2"/>
		<rect id="XMLID_160_" x="11" y="105.3" class="st46" width="154.7" height="1.2"/>
		<rect id="XMLID_159_" x="11" y="104.7" class="st46" width="154.7" height="1.2"/>
		<rect id="XMLID_158_" x="11" y="104.1" class="st47" width="154.7" height="1.2"/>
		<rect id="XMLID_157_" x="11" y="103.5" class="st47" width="154.7" height="1.2"/>
		<rect id="XMLID_156_" x="11" y="102.9" class="st48" width="154.7" height="1.2"/>
		<rect id="XMLID_155_" x="11" y="102.3" class="st48" width="154.7" height="1.2"/>
		<rect id="XMLID_154_" x="11" y="101.6" class="st49" width="154.7" height="1.2"/>
		<rect id="XMLID_153_" x="11" y="101" class="st49" width="154.7" height="1.2"/>
		<rect id="XMLID_152_" x="11" y="100.4" class="st50" width="154.7" height="1.2"/>
		<rect id="XMLID_151_" x="11" y="99.8" class="st50" width="154.7" height="1.2"/>
		<rect id="XMLID_150_" x="11" y="99.2" class="st51" width="154.7" height="1.2"/>
		<rect id="XMLID_149_" x="11" y="98.5" class="st52" width="154.7" height="1.2"/>
		<rect id="XMLID_148_" x="11" y="97.9" class="st53" width="154.7" height="1.2"/>
		<rect id="XMLID_147_" x="11" y="97.3" class="st53" width="154.7" height="1.2"/>
		<rect id="XMLID_146_" x="11" y="96.7" class="st53" width="154.7" height="1.2"/>
		<rect id="XMLID_145_" x="11" y="96.1" class="st54" width="154.7" height="1.2"/>
		<rect id="XMLID_144_" x="11" y="95.5" class="st54" width="154.7" height="1.2"/>
		<rect id="XMLID_143_" x="11" y="94.8" class="st55" width="154.7" height="1.2"/>
		<rect id="XMLID_142_" x="11" y="94.2" class="st55" width="154.7" height="1.2"/>
		<rect id="XMLID_141_" x="11" y="93.6" class="st55" width="154.7" height="1.2"/>
		<rect id="XMLID_140_" x="11" y="93" class="st56" width="154.7" height="1.2"/>
		<rect id="XMLID_139_" x="11" y="92.4" class="st56" width="154.7" height="1.2"/>
		<rect id="XMLID_138_" x="11" y="91.8" class="st56" width="154.7" height="1.2"/>
		<rect id="XMLID_137_" x="11" y="91.1" class="st56" width="154.7" height="1.2"/>
		<rect id="XMLID_136_" x="11" y="90.5" class="st57" width="154.7" height="1.2"/>
		<rect id="XMLID_135_" x="11" y="89.9" class="st57" width="154.7" height="1.2"/>
		<rect id="XMLID_134_" x="11" y="89.3" class="st58" width="154.7" height="1.2"/>
		<rect id="XMLID_133_" x="11" y="88.7" class="st58" width="154.7" height="1.2"/>
		<rect id="XMLID_132_" x="11" y="88" class="st59" width="154.7" height="1.2"/>
		<rect id="XMLID_131_" x="11" y="87.4" class="st59" width="154.7" height="1.2"/>
		<rect id="XMLID_130_" x="11" y="86.8" class="st60" width="154.7" height="1.2"/>
		<rect id="XMLID_129_" x="11" y="86.2" class="st60" width="154.7" height="1.2"/>
		<rect id="XMLID_128_" x="11" y="85.6" class="st61" width="154.7" height="1.2"/>
		<rect id="XMLID_127_" x="11" y="85" class="st61" width="154.7" height="1.2"/>
		<rect id="XMLID_126_" x="11" y="84.3" class="st61" width="154.7" height="1.2"/>
		<rect id="XMLID_125_" x="11" y="83.7" class="st61" width="154.7" height="1.2"/>
		<rect id="XMLID_124_" x="11" y="83.1" class="st61" width="154.7" height="1.2"/>
		<rect id="XMLID_123_" x="11" y="82.5" class="st61" width="154.7" height="1.2"/>
		<rect id="XMLID_122_" x="11" y="81.9" class="st62" width="154.7" height="1.2"/>
		<rect id="XMLID_121_" x="11" y="81.3" class="st62" width="154.7" height="1.2"/>
		<rect id="XMLID_120_" x="11" y="80.6" class="st63" width="154.7" height="1.2"/>
		<rect id="XMLID_119_" x="11" y="80" class="st63" width="154.7" height="1.2"/>
		<rect id="XMLID_118_" x="11" y="79.4" class="st64" width="154.7" height="1.2"/>
		<rect id="XMLID_117_" x="11" y="78.8" class="st63" width="154.7" height="1.2"/>
		<rect id="XMLID_116_" x="11" y="78.2" class="st65" width="154.7" height="1.2"/>
		<rect id="XMLID_115_" x="11" y="77.6" class="st65" width="154.7" height="1.2"/>
		<rect id="XMLID_114_" x="11" y="76.9" class="st66" width="154.7" height="1.2"/>
		<rect id="XMLID_113_" x="11" y="76.3" class="st65" width="154.7" height="1.2"/>
		<rect id="XMLID_112_" x="11" y="75.7" class="st66" width="154.7" height="1.2"/>
		<rect id="XMLID_111_" x="11" y="75.1" class="st67" width="154.7" height="1.2"/>
		<rect id="XMLID_110_" x="11" y="74.5" class="st68" width="154.7" height="1.2"/>
		<rect id="XMLID_109_" x="11" y="73.8" class="st69" width="154.7" height="1.2"/>
		<rect id="XMLID_108_" x="11" y="73.2" class="st69" width="154.7" height="1.2"/>
		<rect id="XMLID_107_" x="11" y="72.6" class="st69" width="154.7" height="1.2"/>
		<rect id="XMLID_106_" x="11" y="72" class="st69" width="154.7" height="1.2"/>
		<rect id="XMLID_105_" x="11" y="71.4" class="st69" width="154.7" height="1.2"/>
		<rect id="XMLID_104_" x="11" y="70.8" class="st70" width="154.7" height="1.2"/>
		<rect id="XMLID_103_" x="11" y="70.1" class="st71" width="154.7" height="1.2"/>
		<rect id="XMLID_102_" x="11" y="69.5" class="st71" width="154.7" height="1.2"/>
		<rect id="XMLID_101_" x="11" y="68.9" class="st71" width="154.7" height="1.2"/>
		<rect id="XMLID_100_" x="11" y="68.3" class="st72" width="154.7" height="1.2"/>
		<rect id="XMLID_99_" x="11" y="67.7" class="st72" width="154.7" height="1.2"/>
		<rect id="XMLID_98_" x="11" y="67.1" class="st73" width="154.7" height="1.2"/>
		<rect id="XMLID_97_" x="11" y="66.4" class="st73" width="154.7" height="1.2"/>
		<rect id="XMLID_96_" x="11" y="65.8" class="st73" width="154.7" height="1.2"/>
		<rect id="XMLID_95_" x="11" y="65.2" class="st74" width="154.7" height="1.2"/>
		<rect id="XMLID_94_" x="11" y="64.6" class="st75" width="154.7" height="1.2"/>
		<rect id="XMLID_93_" x="11" y="64" class="st76" width="154.7" height="1.2"/>
		<rect id="XMLID_92_" x="11" y="63.3" class="st77" width="154.7" height="1.2"/>
		<rect id="XMLID_91_" x="11" y="62.7" class="st78" width="154.7" height="1.2"/>
		<rect id="XMLID_90_" x="11" y="62.1" class="st79" width="154.7" height="1.2"/>
		<rect id="XMLID_89_" x="11" y="61.5" class="st78" width="154.7" height="1.2"/>
		<rect id="XMLID_88_" x="11" y="60.9" class="st80" width="154.7" height="1.2"/>
		<rect id="XMLID_87_" x="11" y="60.3" class="st80" width="154.7" height="1.2"/>
		<rect id="XMLID_86_" x="11" y="59.6" class="st81" width="154.7" height="1.2"/>
		<rect id="XMLID_85_" x="11" y="59" class="st82" width="154.7" height="1.2"/>
		<rect id="XMLID_84_" x="11" y="58.4" class="st83" width="154.7" height="1.2"/>
		<rect id="XMLID_83_" x="11" y="57.8" class="st84" width="154.7" height="1.2"/>
		<rect id="XMLID_82_" x="11" y="57.2" class="st84" width="154.7" height="1.2"/>
		<rect id="XMLID_81_" x="11" y="56.6" class="st84" width="154.7" height="1.2"/>
		<rect id="XMLID_80_" x="11" y="55.9" class="st85" width="154.7" height="1.2"/>
		<rect id="XMLID_79_" x="11" y="55.3" class="st86" width="154.7" height="1.2"/>
		<rect id="XMLID_78_" x="11" y="54.7" class="st87" width="154.7" height="1.2"/>
		<rect id="XMLID_77_" x="11" y="54.1" class="st86" width="154.7" height="1.2"/>
		<rect id="XMLID_76_" x="11" y="53.5" class="st88" width="154.7" height="1.2"/>
		<rect id="XMLID_75_" x="11" y="52.9" class="st88" width="154.7" height="1.2"/>
		<rect id="XMLID_74_" x="11" y="52.2" class="st89" width="154.7" height="1.2"/>
		<rect id="XMLID_73_" x="11" y="51.6" class="st89" width="154.7" height="1.2"/>
		<rect id="XMLID_72_" x="11" y="51" class="st90" width="154.7" height="1.2"/>
		<rect id="XMLID_71_" x="11" y="50.4" class="st91" width="154.7" height="1.2"/>
		<rect id="XMLID_70_" x="11" y="49.8" class="st92" width="154.7" height="1.2"/>
		<rect id="XMLID_69_" x="11" y="49.1" class="st91" width="154.7" height="1.2"/>
		<rect id="XMLID_68_" x="11" y="48.5" class="st93" width="154.7" height="1.2"/>
		<rect id="XMLID_67_" x="11" y="47.9" class="st93" width="154.7" height="1.2"/>
		<rect id="XMLID_66_" x="11" y="47.3" class="st94" width="154.7" height="1.2"/>
		<rect id="XMLID_65_" x="11" y="46.7" class="st95" width="154.7" height="1.2"/>
		<rect id="XMLID_64_" x="11" y="46.1" class="st95" width="154.7" height="1.2"/>
		<rect id="XMLID_63_" x="11" y="45.4" class="st95" width="154.7" height="1.2"/>
		<rect id="XMLID_62_" x="11" y="44.8" class="st96" width="154.7" height="1.2"/>
		<rect id="XMLID_61_" x="11" y="44.2" class="st96" width="154.7" height="1.2"/>
		<rect id="XMLID_60_" x="11" y="43.6" class="st97" width="154.7" height="1.2"/>
		<rect id="XMLID_59_" x="11" y="43" class="st98" width="154.7" height="1.2"/>
		<rect id="XMLID_58_" x="11" y="42.4" class="st98" width="154.7" height="1.2"/>
		<rect id="XMLID_57_" x="11" y="41.7" class="st99" width="154.7" height="1.2"/>
		<rect id="XMLID_56_" x="11" y="41.1" class="st100" width="154.7" height="1.2"/>
		<rect id="XMLID_55_" x="11" y="40.5" class="st100" width="154.7" height="1.2"/>
		<rect id="XMLID_54_" x="11" y="39.9" class="st101" width="154.7" height="1.2"/>
		<rect id="XMLID_53_" x="11" y="39.3" class="st101" width="154.7" height="1.2"/>
		<rect id="XMLID_52_" x="11" y="38.6" class="st101" width="154.7" height="1.2"/>
		<rect id="XMLID_51_" x="11" y="38" class="st102" width="154.7" height="1.2"/>
		<rect id="XMLID_50_" x="11" y="37.4" class="st103" width="154.7" height="1.2"/>
		<rect id="XMLID_49_" x="11" y="36.8" class="st103" width="154.7" height="1.2"/>
		<rect id="XMLID_48_" x="11" y="36.2" class="st104" width="154.7" height="1.2"/>
		<rect id="XMLID_47_" x="11" y="35.6" class="st105" width="154.7" height="1.2"/>
		<rect id="XMLID_46_" x="11" y="34.9" class="st105" width="154.7" height="1.2"/>
		<rect id="XMLID_45_" x="11" y="34.3" class="st105" width="154.7" height="1.2"/>
		<rect id="XMLID_44_" x="11" y="33.7" class="st106" width="154.7" height="1.2"/>
		<rect id="XMLID_43_" x="11" y="33.1" class="st106" width="154.7" height="1.2"/>
		<rect id="XMLID_42_" x="11" y="32.5" class="st107" width="154.7" height="1.2"/>
		<rect id="XMLID_41_" x="11" y="31.9" class="st107" width="154.7" height="1.2"/>
		<rect id="XMLID_40_" x="11" y="31.2" class="st108" width="154.7" height="1.2"/>
		<rect id="XMLID_39_" x="11" y="30.6" class="st109" width="154.7" height="1.2"/>
		<rect id="XMLID_38_" x="11" y="30" class="st110" width="154.7" height="1.2"/>
		<rect id="XMLID_37_" x="11" y="29.4" class="st110" width="154.7" height="1.2"/>
		<rect id="XMLID_36_" x="11" y="28.8" class="st111" width="154.7" height="1.2"/>
		<rect id="XMLID_35_" x="11" y="28.2" class="st111" width="154.7" height="1.2"/>
		<rect id="XMLID_34_" x="11" y="27.5" class="st111" width="154.7" height="1.2"/>
		<rect id="XMLID_33_" x="11" y="26.9" class="st112" width="154.7" height="1.2"/>
		<rect id="XMLID_32_" x="11" y="26.3" class="st112" width="154.7" height="1.2"/>
		<rect id="XMLID_31_" x="11" y="25.7" class="st112" width="154.7" height="1.2"/>
		<rect id="XMLID_30_" x="11" y="25.1" class="st113" width="154.7" height="1.2"/>
		<rect id="XMLID_29_" x="11" y="24.4" class="st113" width="154.7" height="1.2"/>
		<rect id="XMLID_28_" x="11" y="23.8" class="st113" width="154.7" height="1.2"/>
		<rect id="XMLID_27_" x="11" y="23.2" class="st114" width="154.7" height="1.2"/>
		<rect id="XMLID_26_" x="11" y="22.6" class="st114" width="154.7" height="1.2"/>
		<rect id="XMLID_25_" x="11" y="22" class="st115" width="154.7" height="1.2"/>
		<rect id="XMLID_24_" x="11" y="21.4" class="st116" width="154.7" height="1.2"/>
		<rect id="XMLID_23_" x="11" y="20.7" class="st116" width="154.7" height="1.2"/>
		<rect id="XMLID_22_" x="11" y="20.1" class="st116" width="154.7" height="1.2"/>
		<rect id="XMLID_21_" x="11" y="19.5" class="st117" width="154.7" height="1.2"/>
		<rect id="XMLID_20_" x="11" y="18.9" class="st118" width="154.7" height="1.2"/>
		<rect id="XMLID_19_" x="11" y="18.3" class="st119" width="154.7" height="1.2"/>
		<rect id="XMLID_18_" x="11" y="17.7" class="st119" width="154.7" height="1.2"/>
		<rect id="XMLID_17_" x="11" y="17" class="st119" width="154.7" height="1.2"/>
		<rect id="XMLID_16_" x="11" y="16.4" class="st120" width="154.7" height="1.2"/>
		<rect id="XMLID_15_" x="11" y="15.8" class="st121" width="154.7" height="1.2"/>
		<rect id="XMLID_14_" x="11" y="15.2" class="st122" width="154.7" height="1.2"/>
		<rect id="XMLID_13_" x="11" y="14.6" class="st122" width="154.7" height="1.2"/>
		<rect id="XMLID_12_" x="11" y="13.9" class="st123" width="154.7" height="1.2"/>
		<rect id="XMLID_11_" x="11" y="13.3" class="st124" width="154.7" height="1.2"/>
		<rect id="XMLID_10_" x="11" y="13.9" class="st124" width="154.7" height="0"/>
	</g>
</g>
<path id="XMLID_272_" class="st125" d="M113.2,44.2L113.2,44.2c-0.2,0.3-2.2,4.1-11.9,8.6c-10.2,4.7-21.8,0.7-20.6-8.8
	c1.2-9.5,5.3-26,12.3-34.3c7-8.2,14.5-7.9,19.1-6.8c4.6,1,10.3,2.3,11.9,2.5c1.6,0.2,1.2,0.1,1.3,1.9c0.1,1.9-2.7,8.2-4.4,7.3
	c-1.7-0.8-1.5-3.9-2.8-3c-1.3,0.9,0.7,1.6-0.5,4c-1.2,2.4-5.4,1.1-6.8-0.7c-1.4-1.9-4.9-5.7-7.9-3.3c-3,2.4-2.7,7.3-2.3,9.3
	c0.4,2-5,7.6-5.4,11.3c-0.4,3.7,2,10.8,12.2,9.3c4.2-0.6,7.4-2.5,10.1-5C116.2,38.2,112.9,40.1,113.2,44.2L113.2,44.2L113.2,44.2z
	 M116.7,53.1L116.7,53.1c1,3.5,0.8,8.8-4.2,12.7c-6.4,5-23.8,20.6-30.8,36.9c-7,16.3-11,31.7-7.3,50.1c1.1,5.2,2.1,11.6,3.1,18.3
	c-6.9-1-13.5-2.9-19.6-5.6c-2.1-4.3-3.7-8.3-3.6-11.1c0.1-4.6,4.6-14.7,6.9-19.4c2.3-4.7,3.7-9.9,1.9-12.9c-1.8-3-6.2-3.6-9.9,1.3
	c-3.6,5-6.5,14.7-6.5,22.2c0,3.2,0.1,8.2,0,13.7c-2.3-1.5-4.4-3.1-6.5-4.8l0,0c13.2,10.8,30,17.3,48.3,17.3c7.8,0,15.4-1.2,22.5-3.4
	c2.5-7.4,5.8-17.2,5.8-17.3l0,0l0,0c0.1-0.2,1.3-2.8,2.7-6.3c3.2-8.8,5-18.8,5-18.8c-0.6-6.8-1.2-23.8-1.4-43.8
	C122.6,62.6,116.7,53.1,116.7,53.1L116.7,53.1z M116.6,12.8L116.6,12.8c-0.2-0.7-1-1.6-2.5-1.4c-1.5,0.3-2.3,1.2-2.1,2
	c0.2,0.8,1.3,2.7,3.2,2.1S116.6,12.8,116.6,12.8z"/>
<g id="XMLID_313_">
	<path id="XMLID_314_" class="st126" d="M205,103.8v21.7h-12.4V64h23.5c4.5,0,8.5,0.8,11.9,2.5c3.4,1.7,6.1,4.1,7.9,7.2
		c1.8,3.1,2.8,6.6,2.8,10.6c0,6-2,10.8-6.1,14.2c-4,3.5-9.6,5.2-16.8,5.2H205z M205,93.5h11.1c3.3,0,5.8-0.8,7.5-2.4
		c1.7-1.6,2.6-3.8,2.6-6.8c0-3-0.9-5.4-2.6-7.3s-4.1-2.8-7.2-2.9H205V93.5z"/>
	<path id="XMLID_317_" class="st126" d="M282.1,98.8h-23.8v16.5h27.9v10.2h-40.3V64h40.2v10.3h-27.8v14.6h23.8V98.8z"/>
	<path id="XMLID_319_" class="st126" d="M341.1,125.5h-12.4L304.6,85v40.4h-12.4V64h12.4l24.2,40.5V64h12.4V125.5z"/>
	<path id="XMLID_321_" class="st126" d="M398.3,117.7c-2.2,2.7-5.4,4.8-9.5,6.4c-4.1,1.5-8.6,2.3-13.6,2.3c-5.2,0-9.8-1.2-13.7-3.5
		c-3.9-2.3-7-5.7-9.1-10.1c-2.1-4.4-3.2-9.6-3.3-15.6V93c0-6.1,1-11.4,3-15.9c2-4.5,4.9-7.9,8.8-10.3c3.8-2.4,8.3-3.6,13.4-3.6
		c7.1,0,12.7,1.7,16.7,5.2c4,3.5,6.4,8.5,7.1,15.2h-12.1c-0.6-3.5-1.8-6.1-3.7-7.7s-4.5-2.4-7.8-2.4c-4.2,0-7.4,1.6-9.6,4.9
		c-2.2,3.2-3.3,8-3.3,14.4v3.9c0,6.4,1.2,11.3,3.6,14.6c2.4,3.3,5.9,4.9,10.5,4.9c4.7,0,8-1,10-3v-10.6h-11.3v-9.3h23.7V117.7z"/>
	<path id="XMLID_323_" class="st126" d="M452.5,64v40.5c0,6.7-2.1,12-6.2,16c-4.1,3.9-9.7,5.9-16.9,5.9c-7,0-12.6-1.9-16.7-5.7
		s-6.2-9-6.3-15.7V64h12.4v40.6c0,4,0.9,7,2.8,8.8c1.9,1.8,4.5,2.8,7.8,2.8c7,0,10.5-3.7,10.6-11.2V64H452.5z"/>
	<path id="XMLID_325_" class="st126" d="M474.6,125.5h-12.4V64h12.4V125.5z"/>
	<path id="XMLID_327_" class="st126" d="M533.7,125.5h-12.4L497.2,85v40.4h-12.4V64h12.4l24.2,40.5V64h12.4V125.5z"/>
</g>
</svg>
